<svg viewBox="0 0 50 50"><g fill="#F3F3F3"><path d="M24.922 7.686c-8.143 0-14.83 2.181-14.83 4.943 0 .727 1.745 11.05 2.472 15.121.291 1.891 5.089 4.508 12.358 4.508 7.268 0 11.921-2.617 12.357-4.508.728-4.07 2.472-14.394 2.472-15.121-.144-2.762-6.687-4.943-14.829-4.943zm0 21.228c-2.617 0-4.653-2.037-4.653-4.653 0-2.617 2.036-4.653 4.653-4.653 2.617 0 4.652 2.036 4.652 4.653 0 2.471-2.035 4.653-4.652 4.653zm0-14.831c-5.234 0-9.451-.873-9.451-2.036s4.216-2.036 9.451-2.036c5.234 0 9.451.873 9.451 2.036s-4.217 2.036-9.451 2.036z"/><path d="M35.652 31.676c-.291 0-.437.145-.437.145s-3.635 2.91-10.177 2.91-10.177-2.91-10.177-2.91-.292-.145-.437-.145c-.291 0-.582.145-.582.582v.145c.582 3.055 1.018 5.234 1.018 5.523.436 2.184 4.797 3.928 10.031 3.928 5.235 0 9.596-1.744 10.032-3.928 0-.289.437-2.469 1.018-5.523v-.145c.148-.291.001-.582-.289-.582z"/><circle cx="24.922" cy="24.114" r="2.325"/></g></svg>
