<svg viewBox="0 0 50 50"><path fill="#F3F3F3" d="M43.971 18.597c-.009-.046-.016-.093-.029-.139l-.025-.08a1.22 1.22 0 0 0-.079-.201c-.019-.037-.036-.074-.057-.11a1.64 1.64 0 0 0-.117-.178c-.019-.024-.037-.048-.057-.071a2.023 2.023 0 0 0-.148-.154 1.766 1.766 0 0 0-.169-.135l-.027-.021-17.596-11.73a1.65 1.65 0 0 0-1.834 0L6.237 17.508c-.01.006-.018.014-.027.021a1.766 1.766 0 0 0-.169.135.836.836 0 0 0-.205.227 1.397 1.397 0 0 0-.117.178 1.407 1.407 0 0 0-.056.109c-.012.026-.026.053-.037.081-.016.039-.03.08-.043.12l-.025.078a1.632 1.632 0 0 0-.029.139c-.004.024-.01.047-.013.071-.011.07-.016.142-.016.215v11.733c0 .072.005.145.016.216.003.026.01.046.016.071.008.047.016.094.031.141.007.025.016.051.026.08.013.041.026.082.042.121.011.025.026.051.037.077a1.655 1.655 0 0 0 .103.186c.022.036.047.066.073.098.018.026.036.047.057.072a.876.876 0 0 0 .083.09c.021.021.042.047.068.062l.093.078c.025.021.052.036.072.057.01.005.016.016.026.02l17.591 11.737c.278.187.596.28.917.278s.64-.094.918-.278l17.596-11.73.027-.021c.025-.018.05-.037.074-.057a1.79 1.79 0 0 0 .095-.078l.066-.064a1.37 1.37 0 0 0 .138-.162.893.893 0 0 0 .07-.1 1.428 1.428 0 0 0 .104-.186l.037-.079c.016-.041.029-.081.043-.121.008-.027.018-.054.025-.08a1.74 1.74 0 0 0 .029-.14c.004-.024.01-.047.013-.071.008-.072.014-.143.014-.217v-11.73c0-.073-.006-.145-.015-.216-.004-.025-.012-.046-.017-.072h.003zM24.75 28.664l-5.851-3.914 5.851-3.914 5.852 3.914-5.852 3.914zm-1.654-10.701l-7.172 4.797-5.79-3.873 12.962-8.642v7.718zM12.948 24.75L8.81 27.518v-5.536l4.138 2.768zm2.975 1.992l7.172 4.797v7.717l-12.962-8.643 5.79-3.873v.002zm10.481 4.795l7.172-4.797 5.791 3.873-12.963 8.641v-7.717zm10.148-6.786l4.139-2.769v5.537l-4.139-2.768zm-2.976-1.991l-7.172-4.796v-7.718l12.963 8.642-5.791 3.872z"/></svg>
