<svg xmlns="http://www.w3.org/2000/svg" width="532.749" height="76.722" viewBox="9.338 293.877 532.749 76.722"><path fill="none" d="M434.712 368.354H9.338v-74.477h480v74.477h-52.14l4.54-2.953-9.824-6.54.252-1.533c3.294-1.617 6.648-3.055 9.823-4.852.838-.6 1.018-2.275 1.496-3.475-1.197-.3-2.516-1.018-3.474-.72-2.336.72-4.492 2.038-6.828 2.937-6.77 2.576-13.537 5.03-20.845 7.667-.24-2.336-.66-3.773-.54-5.27.48-6.71 1.198-13.42 1.617-20.127.72-11.02 1.378-21.982 1.917-33.004.06-1.617-.54-3.234-.84-4.852l-1.855-.12c-.48 2.038-1.2 4.074-1.32 6.17-.657 10.96-.85 22.042-1.676 33.004-.66 8.086-2.276 16.11-3.234 24.14-.6 4.79 1.197 6.168 5.75 4.67 3.234-1.077 6.41-2.515 9.644-3.593 1.02-.358 2.623-.42 3.354.12 3.234 2.516 6.23 5.33 9.284 8.026l.27.24v.068zm-265.747-6.98c.12.69.24 1.38.347 2.098 1.647.103 3.33.455 4.94.264 7.548-.958 15.036-2.097 22.522-3.055 7.128-.897 13.597-3.533 19.347-7.727 4.733-3.414 4.673-8.325-.598-10.66-4.073-1.738-8.985-2.576-13.477-2.457-6.708.18-13.297 1.617-20.065 2.456-4.612.6-5.33 0-5.33-4.73v-33.484c0-1.078.418-2.097.478-3.175.12-1.377.18-2.815.06-4.193-.06-.3-1.557-.778-1.617-.72-.778 1.2-1.376 2.517-2.036 3.774-.12.24-.06.54-.06.84-.84 13.596-1.737 27.192-2.396 40.85-.3 5.75 1.377 7.007 7.068 5.93 6.888-1.26 13.776-2.995 20.725-3.774 4.134-.42 8.386.3 12.52 1.02 1.497.238 2.755 1.976 4.133 2.994-1.198 1.377-2.216 3.414-3.714 3.953-6.59 2.336-13.238 4.612-20.006 6.11-5.33 1.197-10.96 1.077-16.412 1.796-2.096.3-4.073 1.438-6.17 2.156l-.24-.3-.017.035zm-55.43.09l.456 2.277c1.678 0 3.38.18 5.032-.03 7.368-.938 14.723-2.035 22.103-2.993 7.248-.94 13.854-3.56 19.706-7.906 4.53-3.366 4.577-8.145-.55-10.403-4.217-1.857-9.225-2.708-13.85-2.6-6.707.15-13.38 1.575-20.064 2.455-4.283.55-5.193-.18-5.21-4.51-.03-11.26-.013-22.582 0-33.842 0-.958.262-1.857.316-2.815.06-1.498.18-2.995.06-4.492-.06-.24-1.617-.66-1.737-.54-.78 1.26-1.378 2.576-1.977 3.894-.12.24-.12.54-.12.838-.838 13.597-1.737 27.193-2.456 40.85-.3 5.75 1.377 6.83 7.248 5.75 6.888-1.257 13.716-2.994 20.725-3.773 4.073-.48 8.386.3 12.52 1.078 1.437.3 2.634 2.037 3.952 3.115-1.138 1.258-2.096 3.175-3.474 3.714-6.588 2.335-13.237 4.67-20.006 6.168-5.51 1.198-11.26 1.078-16.83 1.857-2.097.3-4.014 1.438-6.05 2.216l.18-.3.03-.005zm208.402-6.468c-.15-.317-.317-.623-.46-.934-1.822.383-3.62.81-5.452 1.174-7.41 1.516-14.794 3.246-22.28 4.402-2.877.438-6.26.694-9.226-2.564 2.695-1.438 4.84-2.935 7.21-3.81 7.758-2.814 15.605-5.39 23.42-8.085 7.31-2.517 7.29-2.517 7.02-9.885-.06-1.917-.06-3.833-.06-5.75-.01-9.763.06-19.586-.09-29.35 0-1.617-1.018-3.234-1.616-4.852l-1.558.36c-.24 2.456-.778 4.852-.778 7.307.18 11.02.36 22.042.778 33.063.12 3.265-1.078 4.672-4.072 5.57-7.907 2.336-15.754 4.89-23.6 7.523-3.115 1.06-6.29 2.246-9.105 3.953-1.678 1.018-3.415 3.114-3.595 4.85-.12 1.38 1.917 3.644 3.535 4.23 2.994 1.126 6.528 2.276 9.583 1.72 9.164-1.727 18.148-4.193 27.193-6.53 1.138-.287 2.036-1.48 2.995-2.25h.18l-.023-.144zM66.133 295.26l-2.02.318c-.274 2.935-.826 5.888-.778 8.83.132 10.6.36 21.215.803 31.805.12 3.126-1.108 4.39-3.91 5.246-8.285 2.515-16.533 5.17-24.72 7.948-3.116 1.06-6.17 2.414-9.063 3.994-3.923 2.157-3.94 6.625.156 8.248 3.355 1.378 7.344 2.695 10.723 2.097 9.032-1.558 17.91-4.073 26.816-6.41 1.137-.298 2.036-1.556 3.036-2.395-2.396-.36-4.23.06-6.08.48-7.188 1.496-14.255 3.233-21.503 4.31-2.995.48-6.11-.538-9.224-.897l-.18-1.797c2.215-1.198 4.31-2.695 6.647-3.534 7.487-2.695 15.094-5.21 22.64-7.847 8.087-2.814 7.967-2.814 7.848-11.32-.12-11.14 0-22.282-.12-33.483-.06-1.797-.78-3.594-1.198-5.39l.12-.12.006-.083zm14.932 61.473c4.696-1.45 8.727-2.372 12.46-3.995 1.856-.82 4.635-3.133 4.43-4.354-.346-2.18-2.24-4.73-4.216-5.912-4.972-2.995-13.837-1.317-18.27 2.456-4.373 3.653-4.612 14.675 3.234 16.89 8.985 2.517 17.97 2.157 27.074 2.098.898 0 1.857-.778 3.953-1.677-9.522-5.093-19.885.298-28.69-5.512l.025.005zm166.228.012c4.768-1.497 8.805-2.456 12.56-4.055 1.798-.76 4.528-2.972 4.325-4.056-.42-2.228-2.097-4.827-4.014-6.05-4.97-3.132-14.135-1.467-18.604 2.456-4.18 3.684-4.504 14.676 3.516 16.867 8.984 2.47 17.987 2.097 27.05 2 .958-.06 1.917-.838 3.894-1.796-9.464-4.91-19.826.42-28.63-5.39v.023h-.097zm117.914 5.355c-9.464-4.84-19.826.48-28.57-5.366 4.61-1.438 8.624-2.396 12.338-4.013 1.916-.838 4.792-3.294 4.492-4.31-.6-2.337-2.396-5.213-4.553-6.11-6.23-2.756-12.398-1.56-17.85 2.574-4.552 3.414-4.61 14.735 3.115 16.892 9.224 2.575 18.328 2.216 27.552 2.036.84 0 1.617-.778 3.594-1.797l-.06.096h-.06zm102.664-8.182l-.12 1.474c-1.316.48-2.694.982-4.012 1.45-3.475 1.137-7.128 2.096-10.423 3.653-1.078.48-1.497 2.516-2.216 3.833 2.515 0 3.832-.658 5.21-1.018 4.672-1.258 9.404-2.156 13.956-3.594 4.492-1.438 5.21-6.05 1.438-8.926-2.156-1.677-4.792-2.695-7.247-3.953-2.097-1.078-4.253-2.096-6.41-3.114l.24-1.378h13.837l.06-1.677c-6.71-1.977-13.537-3.594-20.604-1.497-3.414 1.02-3.594 4.612-.24 6.59 3.534 2.096 7.548 3.353 11.32 5.03 1.894.84 3.714 1.917 5.57 2.936l-.21.19h-.15zm-94.458 5.06c-.958-7.037 1.258-12.015 5.87-12.83 5.87-1.035 11.98-.957 17.91-1.418 1.257-.097 2.455-.456 3.653-.695-.898-1.006-1.678-2.737-2.695-2.898-3.894-.617-7.906-1.06-11.86-.97-12.458.27-14.974 3.138-16.89 16.47-.06.54-.12 1.14 0 1.648.478 1.736 1.077 3.474 1.616 5.27l2.516-4.61h-.12v.034zm-142.435-14.182c-1.378.563-2.216.706-2.216.958-.778 5.595-1.497 11.2-2.095 16.8 0 .32 1.497 1.2 1.737 1.044.78-.557 1.797-1.402 1.917-2.264.418-2.965.598-5.99.778-8.997.12-2.336.06-4.69.06-7.547h-.18v.006zm3.054-15.92l-.298-2.337-5.39-.062c.478 1.2.838 3.355 1.497 3.415 1.376.24 2.874-.66 4.31-1.08l-.12.062z"/><path d="M434.712 368.354c-3.085-2.707-6.08-5.51-9.303-8.05-.72-.575-2.337-.48-3.355-.144-3.265 1.078-6.41 2.516-9.68 3.594-4.553 1.515-6.32.137-5.75-4.673.958-8.06 2.54-16.07 3.187-24.155.838-11.02 1.018-22.042 1.677-33.003.12-2.097.838-4.133 1.316-6.23l1.798.12c.3 1.618.898 3.235.838 4.793-.6 11.02-1.197 22.042-1.977 33.004-.48 6.707-1.198 13.415-1.677 20.124-.12 1.438.24 2.936.54 5.27 7.307-2.694 14.074-5.15 20.843-7.726 2.277-.84 4.434-2.217 6.83-2.936.958-.3 2.275.48 3.414.72-.48 1.196-.66 2.935-1.558 3.474-3.175 1.855-6.53 3.294-9.823 4.852-.12.54-.18 1.078-.3 1.557l9.823 6.53-4.552 2.993h-2.516l.222-.18v.066zm-265.747-6.98c2.048-.735 4.043-1.855 6.15-2.13 5.452-.78 11.07-.66 16.413-1.857 6.792-1.498 13.435-3.773 20.006-6.11 1.516-.538 2.492-2.636 3.714-3.953-1.378-1.078-2.624-2.755-4.12-2.995-4.122-.72-8.43-1.44-12.52-1.02-6.966.78-13.818 2.456-20.725 3.774-5.69 1.018-7.343-.18-7.056-5.93.66-13.656 1.557-27.253 2.396-40.85 0-.3 0-.6.12-.84.6-1.317 1.258-2.575 2.037-3.772.06-.12 1.557.42 1.617.72.18 1.376.06 2.754-.06 4.192-.12 1.078-.48 2.096-.48 3.174-.06 11.14-.06 22.283-.06 33.483 0 4.732.78 5.332 5.332 4.732 6.647-.898 13.356-2.275 20.064-2.455 4.492-.12 9.344.72 13.477 2.455 5.272 2.276 5.272 7.188.6 10.602-5.81 4.254-12.28 6.83-19.347 7.787-7.547.96-15.034 2.098-22.52 2.996-1.618.18-3.295-.18-4.972-.3l-.358-2.096.24.258.053.137zm-55.43.09c2-.777 3.954-1.927 6.02-2.215 5.572-.768 11.322-.624 16.772-1.846 6.768-1.498 13.417-3.857 19.946-6.17 1.377-.49 2.336-2.408 3.474-3.672-1.318-1.078-2.516-2.875-3.953-3.114-4.133-.778-8.446-1.497-12.52-1.078-7.007.778-13.835 2.456-20.724 3.773-5.87 1.078-7.487-.06-7.248-5.75.66-13.657 1.557-27.253 2.396-40.85 0-.3 0-.6.06-.838.6-1.318 1.198-2.695 1.917-3.894.06-.12 1.677.3 1.677.54.12 1.498 0 2.995-.12 4.492-.06.958-.36 1.857-.36 2.815 0 11.26-.06 22.582 0 33.842 0 4.31.9 5.03 5.212 4.49 6.708-.897 13.357-2.335 20.066-2.454 4.612-.12 9.644.72 13.836 2.575 5.09 2.217 5.09 7.01.54 10.303-5.87 4.373-12.46 6.95-19.707 7.907-7.368.958-14.736 2.036-22.103 2.995-1.677.24-3.354.06-5.03.06l-.48-2.276.3.3.03.065zm208.402-6.468c-.994.78-1.875 1.965-2.995 2.252-9.044 2.336-18.076 4.805-27.234 6.53-2.996.556-6.53-.618-9.584-1.726-1.558-.588-3.594-2.875-3.534-4.23.18-1.736 1.917-3.832 3.594-4.85 2.815-1.714 5.99-2.895 9.104-3.954 7.847-2.636 15.693-5.18 23.6-7.522 2.995-.898 4.192-2.295 4.073-5.56-.42-11.02-.6-22.042-.718-33.063 0-2.42.54-4.852.778-7.266l1.558-.37c.6 1.616 1.617 3.233 1.617 4.85.19 9.788.07 19.587.132 29.37 0 1.928 0 3.862.06 5.785.3 7.38.3 7.39-7.008 9.92-7.788 2.694-15.635 5.282-23.42 8.11-2.337.873-4.493 2.37-7.19 3.808 2.996 3.26 6.41 2.996 9.285 2.564 7.486-1.156 14.854-2.887 22.28-4.402 1.798-.36 3.644-.78 5.452-1.14.132.36.3.66.42.96h-.27v-.066zM66.133 295.26c.42 1.798 1.186 3.583 1.198 5.38.133 11.16 0 22.33.12 33.482.097 8.518.222 8.542-7.87 11.362-7.547 2.636-15.136 5.092-22.64 7.835-2.35.86-4.458 2.37-6.68 3.593l.18 1.784c3.115.348 6.29 1.35 9.224.9 7.248-1.08 14.315-2.816 21.503-4.29 1.856-.377 3.713-.84 6.11-.437-1.02.778-1.858 2.096-2.996 2.396-8.804 2.276-17.728 4.852-26.773 6.41-3.354.598-7.367-.72-10.722-2.157-4.073-1.618-4.073-6.11-.12-8.267 2.875-1.617 5.99-2.996 9.104-4.014 8.205-2.816 16.47-5.452 24.737-7.968 2.815-.838 4.073-2.156 3.953-5.27-.42-10.604-.66-21.205-.778-31.807 0-2.995.54-5.93.778-8.865l2.037-.3-.3.18-.064.05zm14.938 61.473c8.806 5.828 19.168.437 28.674 5.51-2.037.917-2.995 1.69-3.953 1.69-9.044.06-18.088.442-27.013-2.085-7.846-2.198-7.607-13.237-3.234-16.915 4.493-3.714 13.357-5.39 18.27-2.456 1.976 1.198 3.892 3.774 4.25 5.93.24 1.26-2.575 3.534-4.43 4.373-3.715 1.617-7.728 2.575-12.46 4.013l-.06-.06h-.042zm12.49-8.864c-4.792-3.356-11.5-3.158-14.555.01-.84.87-1.02 2.397-1.498 3.618 1.198.287 2.635 1.096 3.654.78 3.894-1.175 7.668-2.715 12.34-4.41h.06zm153.696 8.875c8.806 5.792 19.107.497 28.632 5.392-1.977.94-2.876 1.772-3.833 1.772-9.105.06-18.09.418-27.074-2.037-8.025-2.217-7.726-13.178-3.533-16.892 4.433-3.952 13.597-5.63 18.568-2.455 1.917 1.198 3.594 3.773 4.013 6.05.18 1.09-2.516 3.294-4.312 4.013-3.773 1.57-7.786 2.588-12.578 4.025l.118.132zm11.627-9.296c-3.93-2.816-8.062-2.77-11.98-.6-1.592.88-2.587 2.85-3.856 4.324.36.42.7.84 1.048 1.258 5.45.3 10.003-2.575 14.795-4.983h-.007zm106.3 14.65c-1.94 1.02-2.743 1.78-3.563 1.797-9.207.15-18.34.51-27.47-2.036-7.757-2.18-7.667-13.458-3.114-16.908 5.45-4.15 11.62-5.33 17.85-2.588 2.096.96 3.953 3.834 4.552 6.11.264 1.02-2.623 3.534-4.492 4.312-3.714 1.617-7.727 2.575-12.34 3.953 8.734 5.87 19.066.538 28.572 5.39l.005-.03zm-15.933-14.735c-4.972-2.755-9.104-2.665-12.998-.54-1.617.876-2.636 2.84-3.894 4.313l1.02 1.174c5.57.432 10.182-2.324 15.872-4.953v.005zm118.597 6.553c-1.856-.982-3.684-2.072-5.6-2.935-3.75-1.707-7.75-2.966-11.285-5.044-3.354-1.966-3.15-5.595.257-6.6 7.067-2.086 13.956-.48 20.664 1.495v1.666h-13.836l-.24 1.378c2.156 1.02 4.312 2 6.41 3.073 2.455 1.246 5.09 2.295 7.247 3.942 3.773 2.875 3.114 7.487-1.378 8.907-4.553 1.46-9.284 2.37-13.896 3.593-1.376.377-2.694 1.018-5.21 1 .72-1.378 1.138-3.414 2.276-3.894 3.354-1.56 6.948-2.517 10.48-3.715 1.38-.48 2.696-.958 4.074-1.497l.24-1.497h-.18l-.023.128zm-94.483 5.06l-2.516 4.59c-.54-1.738-1.126-3.475-1.617-5.272-.137-.48-.06-1.078 0-1.617 1.918-13.358 4.464-16.173 16.916-16.474 3.953-.06 7.967.36 11.872.96 1.018.18 1.797 1.915 2.695 2.935-1.258.24-2.456.6-3.654.72-5.99.48-12.04.42-17.91 1.438-4.61.838-6.828 5.81-5.87 12.817v-.06l.084-.036zM230.91 344.797c0 2.856.097 5.2-.017 7.547-.132 2.995-.312 6.026-.743 8.985-.12.867-1.078 1.713-1.87 2.275-.24.156-1.736-.73-1.676-1.05.6-5.616 1.318-11.2 2.156-16.794 0-.26.898-.4 2.276-.96h-.12l-.005-.004zm3.055-15.915c-1.438.42-2.953 1.32-4.27 1.08-.66-.12-.99-2.24-1.475-3.457l5.45.06.36 2.312h-.06l-.005.006z"/><path fill="none" d="M93.566 347.87c-4.636 1.693-8.428 3.233-12.34 4.407-1.047.316-2.437-.492-3.67-.78.466-1.22.616-2.754 1.45-3.616 3.054-3.174 9.762-3.372 14.554-.01h.006zm165.346-.42c-4.833 2.395-9.344 5.282-14.794 4.988l-1.036-1.258c1.258-1.48 2.258-3.438 3.857-4.33 3.91-2.17 8.043-2.217 11.978.6h-.006zm90.356-.085c-5.672 2.623-10.29 5.38-15.873 4.947l-1.018-1.174c1.287-1.473 2.294-3.438 3.894-4.312 3.906-2.126 8.026-2.216 12.998.54z"/><path d="M531.64 331.582c-.112-.31-.422-.517-.75-.592-.238-.05-.48-.062-.724-.038-.146.07-.3.123-.46.16.088.382.257.74.497 1.052.102.142.233.26.386.348.376.183.83.024 1.014-.354.087-.18.1-.387.036-.576zm-6.14 6.918c-5.745 0-12.036-3.688-12.392-3.904-.444-.262-.59-.834-.33-1.277.262-.444.835-.592 1.278-.33 1.982 1.122 4.073 2.037 6.242 2.73 3.014.94 7.163 1.625 9.765-.496.4-.322.986-.263 1.31.136.324.4.264.986-.136 1.31-1.625 1.342-3.643 1.83-5.737 1.83zm-9.003-8.9s1.972-.216 1.972.63c0 .845-1.41.863-1.41.863s-1.596-.44-.563-1.492zm6.665 2.996s.676-1.24 1.323-.676c.65.562.396 1.22.396 1.22s-1.25.225-1.718-.544z"/><path d="M540.915 339.674c-.25-.1-.508-.18-.77-.244l-.826 3.567-.75-.817s-2.077-20.023-10.714-23.78c-3.49.583-7.98.94-9.764 3.38 0 0-11.867 5.062-10.76 20.166-1.5.244-2.975.628-4.402 1.146-.415.15-.63.608-.48 1.022.15.415.61.628 1.023.48 1.305-.473 2.65-.825 4.02-1.053.327 2.545 1.012 5.362 2.168 8.47 4.206 5.792 8.478 7.96 12.336 8.252.07.62.183 1.234.338 1.84.15.62.292 1.21.32 1.803.016.517-.003 1.034-.058 1.55-.084.994-.17 2.027.188 3.06.142.417.597.64 1.013.497.418-.144.64-.597.498-1.014-.244-.714-.18-1.54-.104-2.413.063-.59.08-1.183.057-1.775-.046-.72-.206-1.407-.356-2.063-.123-.483-.22-.972-.29-1.466.35-.018.694-.052 1.033-.103.047.8.196 1.56.347 2.3.15.743.29 1.466.328 2.19.02.625 0 1.252-.056 1.876-.075 1.155-.16 2.348.18 3.53.148.414.605.63 1.02.48.376-.137.594-.53.508-.923-.263-.9-.187-1.915-.112-2.975.06-.688.08-1.377.057-2.065-.048-.836-.197-1.645-.357-2.413-.16-.77-.31-1.55-.328-2.31 5.857-1.53 9.988-6.543 9.988-6.543s4.432-5.137 5.878-11.36c-.384-.77-.777-1.53-1.17-2.29zm-25.45 15.716c-3.972-4.084-5.558-8.262-5.773-12.167.332-.07.648-.198.938-.375.517-.33.835-.79 1.117-1.202.14-.22.3-.428.48-.62.422-.4 1.024-.55 1.586-.395.418.14.87-.09 1.006-.508.137-.42-.09-.87-.51-1.008-.017-.006-.03-.01-.047-.013-1.12-.32-2.326-.02-3.164.79-.253.262-.48.548-.677.853-.227.328-.423.61-.658.76l-.094.057c.358-9.17 7.67-16.4 7.67-16.4s3.194-5.07 10.14-5.07c4.6.564 7.7 13.144 7.7 13.144s2.157 5.538 2.063 8.073c-.093 2.536.847 3.1.847 3.1h1.22c0-.003-9.764 22.34-23.845 10.983z"/></svg>