<svg xmlns="http://www.w3.org/2000/svg" width="50" height="50" viewBox="0 0 50 50">
  <path fill="#F3F3F3" d="M42.87 23.534L26.276 6.944c-.955-.957-2.504-.957-3.46 0l-3.445 3.445 4.37 4.37c1.016-.344 2.18-.114 2.99.695.813.814 1.042 1.99.69 3.01l4.212 4.21c1.02-.352 2.194-.123 3.01.692 1.136 1.136 1.136 2.98 0 4.12-1.14 1.134-2.982 1.134-4.12 0-.855-.858-1.067-2.116-.634-3.17l-3.928-3.927v10.336c.277.137.538.322.77.55 1.138 1.138 1.138 2.98 0 4.118-1.138 1.14-2.982 1.14-4.118 0-1.137-1.137-1.137-2.98 0-4.117.28-.28.607-.492.953-.635V20.208c-.346-.14-.67-.353-.953-.635-.862-.86-1.068-2.124-.627-3.183l-4.308-4.31L6.3 23.457c-.956.956-.956 2.507 0 3.463l16.592 16.59c.956.955 2.504.955 3.46 0L42.87 26.996c.955-.957.955-2.506 0-3.462"/>
</svg>
