<svg viewBox="0 0 50 50"><path fill="#F3F3F3" d="M24.799 6.701c-10.013 0-18.133 8.118-18.133 18.133 0 8.01 5.196 14.807 12.4 17.206.906.167 1.239-.395 1.239-.873 0-.432-.017-1.86-.025-3.375-5.044 1.096-6.109-2.141-6.109-2.141-.824-2.096-2.013-2.653-2.013-2.653-1.646-1.125.124-1.102.124-1.102 1.821.129 2.779 1.868 2.779 1.868 1.618 2.772 4.242 1.971 5.277 1.508.163-1.172.632-1.973 1.151-2.425-4.028-.457-8.261-2.013-8.261-8.96 0-1.98.708-3.598 1.868-4.867-.188-.457-.81-2.301.175-4.798 0 0 1.522-.488 4.987 1.858a17.375 17.375 0 0 1 4.539-.61c1.541.007 3.093.208 4.542.61 3.461-2.346 4.981-1.858 4.981-1.858.987 2.498.366 4.341.178 4.798 1.162 1.269 1.865 2.887 1.865 4.867 0 6.964-4.24 8.498-8.278 8.947.65.562 1.23 1.666 1.23 3.356 0 2.427-.022 4.381-.022 4.977 0 .484.327 1.049 1.246.871 7.201-2.4 12.39-9.195 12.39-17.204.002-10.015-8.117-18.133-18.13-18.133zM13.458 32.53c-.041.09-.182.117-.312.056-.132-.06-.205-.183-.163-.271.04-.093.181-.119.312-.058.133.059.208.184.163.273zm.892.796c-.087.081-.256.044-.371-.083-.119-.127-.141-.296-.053-.377.089-.081.253-.044.372.083.119.129.141.296.052.377zm.611 1.019c-.111.077-.293.005-.405-.155-.111-.162-.111-.355.002-.433.112-.079.292-.008.406.15.111.165.111.359-.003.438zm1.035 1.178c-.099.11-.311.081-.465-.068-.159-.148-.204-.354-.103-.464.1-.11.312-.079.469.069.157.147.205.356.099.463zm1.337.399c-.044.141-.248.206-.453.146-.206-.062-.339-.228-.298-.372.042-.144.248-.211.454-.146.205.062.34.227.297.372zm1.522.169c.005.148-.168.273-.385.275-.216.006-.392-.116-.394-.262 0-.152.169-.274.387-.277.216-.005.392.114.392.264zm1.496-.057c.026.146-.124.295-.337.336-.211.038-.406-.054-.433-.196-.026-.15.126-.301.336-.339.214-.038.406.05.434.199z"/></svg>
