<svg xmlns="http://www.w3.org/2000/svg" width="50" height="50" viewBox="0 0 50 50">
  <g fill="#F3F3F3">
    <path d="M29.804 45.896l.414-6.873 1.138-1.945s-2.593 1.06-6.933 1.06-6.894-1.04-6.894-1.04l1.275 2.12.452 6.68c0 .716 2.36 1.296 5.274 1.296s5.274-.58 5.274-1.298M28.503 13.797l.867-3.425 4.795-5.045L32.9 4.25l-5.076 5.375-1.006 4.092c-.728-.026-1.487-.038-2.27-.038-5.347 0-9.685.606-9.685 1.358S19.2 16.4 24.547 16.4s9.682-.61 9.682-1.362c0-.554-2.35-1.03-5.727-1.24"/>
    <path d="M28 15.71s-.188.043-.738.045c-.554.002-.945-.003-1.102-.144-.042-.038-.063-.114-.063-.165 0-.097.07-.156.158-.192l.084.13c-.037.015-.06.03-.06.045 0 .073.565.125.996.12.432-.007.955-.043.956-.112 0-.024-.04-.043-.11-.062l.084-.13c.112.036.21.104.21.218-.002.198-.254.23-.417.25M34.156 5.335c.12-.138-.063-.496-.41-.795s-.724-.43-.845-.29c-.12.14.063.495.41.795.346.3.725.433.846.29M29.575 29.105c-.115-1.092 2.392-2.676 1.746-2.73-1.383.08-2.07 1.626-2.77 3.24-.253.593-1.123 3.118-1.698 2.806-.573-.308.744-2.386 1.11-3.618-.425.31-1.984 1.523-2.39.39-.643.548-2.024.845-1.868-.597-.343.61-1.116 1.46-2.042 1.105-1.216-.465.706-4.337 1.18-4.14.482.192-.094 1.076-.242 1.42-.33.753-.713 1.7-.457 1.895.436.332 1.624-1.258 1.65-1.293.223-.295.856-2.218 1.37-2 .51.225-1.276 2.763-.61 3.267.136.1.69-.063 1.02-.427.222-.234.146-.754.868-2.477.723-1.724 1.37-3.87 1.862-3.706.496.164.09 1.266-.09 1.676-.835 1.926-2.276 5.11-1.597 4.87.68-.24 1.035-.255 1.702-1.034.666-.78.636-2.064 1.077-2.038.446.027.37.44.265.752.435-.5 2.07-1.553 2.464-.51.47 1.237-2.337 3.02-1.64 2.928.685-.088 1.79-.787 2.26-1.424l1.3-11.68s-1.308 1.084-9.623 1.084-9.487-1.06-9.487-1.06l1.104 10.658c.588-1.667 1.985-5.042 4.18-4.928 1 .05 2.333 1.976 1.19 2.04-.48.028-.53-.958-1.103-1.105-.414-.104-.99.23-1.36.594-.743.73-2.338 3.592-2.127 5.02.268 1.82 2.513-.633 2.892-1.36.266-.515.445-2.034 1.03-1.874.586.16-.05 1.728-.474 3.115-.476 1.557-.726 3.2-1.32 3.012-.602-.19.37-2.2.34-2.553-.564.518-1.597 1.828-2.92 1.18l.688 6.62s1.825 1.442 7.324 1.442 7.393-1.42 7.393-1.42l.853-7.666c-.698.68-2.907 1.887-3.048.525"/>
  </g>
</svg>
