<svg xmlns="http://www.w3.org/2000/svg" width="50" height="50" viewBox="0 0 50 50">
  <g fill="#F3F3F3">
    <path d="M33.27 20H30v13.527c0 .133.52.473.686.473h2.583c.167 0-.27-.322-.27-.457v-13.15c0-.15.4-.393.27-.393zM31.936 18.31c1.016 0 1.732-.6 1.732-1.7 0-1.016-.684-1.698-1.7-1.698-.948 0-1.698.632-1.698 1.698 0 1.1.7 1.7 1.666 1.7zM14.12 34h2.45c.166 0 .215.05.25-.082L18.135 29h5.333l1.366 4.934c.033.117.117.066.25.066h2.766c.134 0 .167-.21.134-.344l-5.3-18.237c-.034-.133-.083-.42-.2-.42h-3.5c-.083 0-.133.238-.133.354-.034.817-.083 1.178-.167 1.478l-4.732 16.744c-.035.2 0 .424.165.424zm6.632-16h.034c.417 2 1.516 6 1.983 8h-3.95c.7-3 1.583-6 1.932-8z"/>
  </g>
</svg>
