<svg xmlns="http://www.w3.org/2000/svg" width="50" height="50" viewBox="0 0 50 50">
  <path fill="#F3F3F3" d="M25.48 36.214c-.234-.052-.46-.126-.688-.192-.06-.018-.115-.035-.17-.05-.223-.07-.442-.142-.662-.218-.03-.012-.06-.023-.09-.032-.195-.07-.39-.142-.582-.217-.055-.02-.108-.042-.163-.063-.213-.084-.423-.172-.63-.262-.042-.018-.086-.037-.126-.057-.18-.08-.357-.162-.53-.245l-.155-.073c-.138-.066-.274-.14-.41-.21-.09-.048-.184-.093-.272-.142-.167-.092-.33-.182-.493-.276-.055-.032-.11-.06-.167-.093-.215-.126-.43-.258-.64-.393-.06-.036-.115-.075-.173-.112-.154-.1-.307-.2-.455-.303-.05-.033-.098-.07-.146-.104-.147-.103-.29-.204-.432-.31l-.19-.145c-.13-.102-.26-.2-.39-.305-.057-.05-.116-.094-.174-.14-.164-.136-.325-.27-.485-.41-.02-.013-.035-.026-.053-.04-.173-.154-.343-.31-.51-.466-.05-.046-.097-.09-.145-.137-.123-.118-.245-.237-.364-.358-.05-.05-.097-.097-.143-.146-.152-.156-.303-.314-.45-.475l-.022-.025c-.154-.17-.305-.343-.455-.52-.04-.047-.08-.093-.118-.14-.11-.133-.22-.27-.33-.406-.04-.05-.08-.1-.117-.15-.13-.168-.257-.333-.377-.503-3.417-4.658-4.643-11.082-1.913-16.357l-2.42 3.07c-3.1 4.454-2.715 10.25-.347 14.983.057.113.116.226.175.338.037.07.07.144.11.214.022.042.047.082.068.12.04.078.083.15.124.224.073.13.148.258.226.387l.128.21c.085.14.175.273.264.41.037.058.073.12.112.173.124.184.25.368.378.55.005.005.01.01.012.014.02.03.043.058.062.087.112.153.23.31.348.46l.13.166c.105.132.212.263.322.393l.12.145c.147.172.294.343.448.51 0 .004.005.006.008.007l.018.02c.147.163.3.323.452.48.048.05.097.098.145.146.118.12.24.237.36.354l.15.142c.16.154.328.305.496.453.004.002.004.005.008.006.028.025.06.05.087.073.148.128.3.255.45.38.064.05.125.1.187.15.124.1.25.2.377.295l.198.152c.14.1.28.204.422.302.05.037.102.072.152.11l.043.028c.133.092.27.18.408.27.06.037.117.08.177.12.212.132.425.264.643.392l.177.1c.157.092.318.182.48.27.087.046.177.09.265.136.113.06.23.123.343.18.028.014.055.025.08.04.047.02.093.042.142.066.18.085.36.172.545.255l.115.052c.21.092.42.18.636.264.052.023.103.04.155.06.198.077.4.155.602.225.025.01.05.02.075.027.22.076.445.148.67.22l.16.046c.23.068.456.15.692.195C37.427 43.342 41.78 31.6 41.78 31.6c-3.655 4.766-10.148 6.02-16.298 4.622l-.005-.008zm-5.402-12.15c.336.482.71 1.055 1.153 1.442.163.176.332.35.505.52.042.048.088.09.132.132.167.164.338.322.512.477.01.007.014.013.022.02 0 .002.004.002.004.006.193.17.396.336.602.495.044.035.09.072.137.107.204.156.413.312.625.46.008.003.014.008.02.013l.287.19c.047.028.09.06.137.09.152.098.31.193.464.284.02.013.044.023.065.036.136.078.274.156.412.23.048.027.098.05.146.076.097.05.19.1.29.148.013.006.028.016.042.02.197.1.396.19.6.28.045.02.09.034.133.054.163.07.325.137.49.2l.21.077c.15.058.3.11.452.16.068.02.136.042.204.06.217.07.432.156.654.193 11.572 1.916 14.244-6.994 14.244-6.994-2.407 3.47-7.072 5.123-12.05 3.832-.22-.06-.438-.122-.655-.19-.067-.02-.13-.042-.2-.063-.15-.05-.303-.105-.456-.16-.07-.026-.14-.05-.206-.077-.167-.064-.33-.13-.492-.2l-.135-.056c-.202-.088-.403-.182-.604-.28-.104-.05-.205-.103-.304-.154-.06-.03-.117-.058-.175-.09-.13-.07-.256-.143-.382-.215-.03-.017-.062-.035-.093-.05-.154-.094-.31-.19-.465-.283-.045-.03-.09-.063-.14-.094-.1-.065-.2-.132-.298-.2-.215-.146-.424-.3-.626-.456-.047-.038-.094-.074-.142-.11-2.178-1.72-3.904-4.072-4.728-6.738-.86-2.763-.674-5.868.817-8.386l-1.833 2.585c-2.24 3.225-2.117 7.543-.37 10.955.294.572.623 1.127.99 1.656l.008-.002zm12.198-3.99c.096.037.19.068.29.1.042.012.083.03.125.04.137.043.272.094.414.12 6.39 1.233 8.122-3.28 8.584-3.944-1.52 2.186-4.068 2.71-7.2 1.95-.247-.06-.52-.148-.758-.234-.308-.11-.606-.233-.9-.373-.557-.268-1.086-.59-1.577-.962-2.803-2.124-4.54-6.18-2.715-9.482L27.55 8.65c-1.322 1.944-1.452 4.36-.536 6.507.967 2.28 2.95 4.068 5.26 4.917h.002z"/>
</svg>
