<svg xmlns="http://www.w3.org/2000/svg" width="50" height="50" viewBox="0 0 50 50">
  <path fill="#F3F3F3" d="M16.45 14.268h4.987v13.986c0 6.3-3.02 8.5-7.846 8.5-1.18 0-2.69-.196-3.674-.527l.56-4.036c.69.23 1.575.394 2.56.394 2.1 0 3.414-.952 3.414-4.364V14.268zm9.32 17.003c1.312.69 3.415 1.382 5.548 1.382 2.298 0 3.513-.952 3.513-2.43 0-1.346-1.052-2.166-3.71-3.084-3.675-1.313-6.103-3.35-6.103-6.6 0-3.774 3.183-6.63 8.37-6.63 2.527 0 4.333.492 5.644 1.117L37.92 19.03c-.855-.428-2.463-1.05-4.597-1.05-2.165 0-3.216 1.017-3.216 2.132 0 1.41 1.215 2.035 4.104 3.15 3.906 1.446 5.71 3.482 5.71 6.63 0 3.71-2.82 6.86-8.895 6.86-2.526 0-5.02-.69-6.27-1.38l1.017-4.1z"/>
</svg>
