<svg viewBox="0.261 102.579 480.085 435.447"><path fill="none" d="M44.312 102.612c-3.237 2.247-6.436 4.553-9.731 6.696-2.156 1.407-2.774 3.354-2.762 5.764.241 40.149.665 80.292.639 120.441-.026 46.2-.456 92.407-.684 138.601-.006.808-.599 2.116 1.133 2.077.033 0 .143.404.084.567-.143.384-.377.723-.573 1.088-7.139 12.909-14.252 25.839-21.423 38.723-1.543 2.769-3.465 5.328-4.95 8.122-1.446 2.717-3.413 5.081-4.807 7.816-.124.222-.352.424-.378.664-.462 3.589-.912 7.204.241 10.722.651 1.967 1.661 3.83 2.638 5.673.273.502 1.01 1.042 1.55 1.068 10.91.437 21.827.763 32.737 1.198 13.06.521 26.119 1.141 39.179 1.7 6.813.293 13.626.6 20.446.808 1.342.046 1.746.431 1.681 1.785-.521 10.852-.958 21.709-1.479 32.561-.072 1.479-.482 2.932-.638 4.41-.065.593-.137 1.518 1.022.971.091.26.299.554.248.774-.977 3.928-1.993 7.836-3.003 11.751-1.713 6.637-3.335 13.3-5.172 19.898-.866 3.106.534 5.712 1.316 8.468.104.358 1.081.651 1.661.657 8.767.131 17.528.177 26.301.294 17.229.228 34.45.481 51.678.716.358.007.71-.117 1.068-.176-.391-.091-.775-.247-1.166-.254-5.888-.137-11.79-.286-17.678-.364-4.351-.053-8.702-.007-13.053-.007v-.482h96.986v.378c-.749.065-1.498.124-2.253.176l.006.065c3.96 0 7.934.039 11.894-.007 17.997-.188 35.987-.403 53.984-.605 13.99-.156 27.995-.3 41.985-.437 13.946-.137 27.878-.325 41.823-.378 2.879-.013 4.657-1.804 6.689-3.296.404-.299.782-.703 1.238-.892.853-.346 1.016-.893.794-1.714-.137-.521-.43-1.225-.221-1.582.677-1.134.299-2.163.032-3.244-2.547-10.337-5.126-20.667-7.582-31.03-.442-1.869-.476-3.862-.515-5.804-.156-7.946-.339-15.893-.286-23.839.02-2.078.866-4.156 1.276-6.24.137-.678.358-1.524.085-2.064-.658-1.31.137-1.166.938-1.186 7.589-.209 15.17-.424 22.759-.651 17.573-.521 35.153-1.029 52.733-1.59 2.247-.071 4.481-.403 6.715-.618.104-.014.229-.007.3-.065 1.727-1.505 4.208-1.615 5.85-3.42 1.315-1.459 3.067-2.527 4.624-3.765 0 31.018-.007 62.035.032 93.059 0 1.134-.215 1.433-1.4 1.433-159.105-.032-318.21-.046-477.316 0-1.094 0-1.348-.201-1.348-1.328C.312 392.41.312 248.124.28 103.836c0-1.068.221-1.257 1.264-1.25 14.258.045 28.509.026 42.768.026zm138.431 434.047v-.229h-8.468v.229h8.468zm297.563-98.66c-.514-1.439-.95-2.905-1.569-4.299-1.491-3.354-2.938-6.723-4.625-9.979-7.627-14.785-15.332-29.525-23.031-44.278-.332-.646-.932-1.146-1.381-1.733-.124-.156-.254-.377-.254-.56.098-14.284.241-28.568.293-42.846.208-55.163.391-110.319.573-165.476.059-18.303.11-36.6.183-54.902.006-.938-.17-1.622-.958-2.241-3.816-2.997-7.588-6.044-11.379-9.08 13.594 0 27.181.02 40.774-.026 1.153-.007 1.414.261 1.414 1.414-.039 111.341-.039 222.67-.04 334.006z"/><path fill="#FFF" stroke="#000" stroke-miterlimit="10" d="M237.15 450.335l-126.134-.462c-24.849-.104-49.861-.195-76.306-.312-9.379-.039-18.765-.117-28.145-.117-1.114 0-1.537-.378-1.921-1.414-1.446-3.895-.821-7.895-.866-11.867-.026-2.977 1.003-5.511 2.436-8.063a9856.975 9856.975 0 0 0 27.669-50.03c.606-1.102 1.244-1.446 2.508-1.381 12.336.684 24.686 1.146 37.016 1.973 17.756 1.192 35.518.516 53.281.535 93.019.104 186.039.045 279.065.098.833 0 4.324-.312 4.911-.32 12.46-.025 24.92.02 37.381.014.873 0 1.374.229 1.791 1.049 8.807 17.071 17.704 34.085 26.406 51.209 1.608 3.166 2.436 6.729 3.569 10.129.091.286-.183.879-.463 1.081-3.12 2.24-6.26 4.462-9.444 6.611-.547.371-1.342.469-2.032.501-10.552.469-21.098 1.219-31.656 1.283-25.22.176-50.446.065-75.674 0-26.815-.064-53.632-.222-80.454-.306-14.305-.046-28.621-.007-42.924-.007-.014-.073-.014-.139-.014-.204z"/><path fill="none" d="M311.111 525.847c-17.652.13-39.445.293-61.227.41-1.141.007-2.287-.508-3.407-.456-24.582 1.127-49.184.273-73.778.437-21.377.149-42.761.013-64.151 0-2.319 0-4.56-.169-6.644-1.491-.736-.463-1.882-.365-2.846-.392-1.127-.025-1.355-.403-1.036-1.504 1.98-6.885 3.901-13.783 5.836-20.688.365-1.276.619-2.599 1.075-3.843 2.605-7.034 2.807-14.434 3.368-21.781.534-7.002 1.055-14.004 1.602-21.013.117-1.537 1.094-2.208 2.58-2.11 3.198.209 6.396.346 9.607.417 2.905.065 5.823.026 8.734.007 3.875-.02 7.745-.072 11.626-.104 4.749-.039 9.503-.104 14.252-.117 7.125-.026 14.245-.02 21.357-.02 14.501-.016 29.003-.005 43.504.032l21.671.085c1.074.007 2.156 0 3.23-.007.195-.006.553-.02.573-.091.469-1.817 1.85-.873 2.813-.873 40.968-.007 81.936.022 122.903.085 2.677.007 3.55.932 3.55 3.608.007 6.768.014 13.535 0 20.31-.013 8.311.912 16.498 3.113 24.556 1.805 6.617 3.381 13.294 5.042 19.944.104.391.137.801.195 1.211.183 1.146-.307 1.661-1.466 1.798-.403.046-.71.626-1.113.873-.456.28-.964.651-1.453.658-4.872.059-9.744.045-14.616.052l-54.894.007z"/><path d="M182.743 536.659h-8.468v-.229h8.468v.229zm58.016-128.16c-26.764-.149-53.528-.3-80.292-.463-29.435-.169-58.863-.364-88.297-.54-1.759-.02-1.922-.202-1.485-1.732 1.342-4.612 2.729-9.204 4.012-13.828.365-1.297.411-2.664.665-3.986.052-.254.345-.476.521-.723.046.247.15.494.124.729-.137 1.121.847.75 1.439.756 10.415.02 20.817.014 31.232.014 98.862 0 197.725.006 296.593-.027 1.296 0 1.83.274 2.064 1.42 1.258 6 2.619 11.985 3.967 17.978.254 1.107-.169 1.485-1.498 1.479-28.815-.196-57.631-.392-86.44-.561-24.041-.144-48.096-.28-72.144-.41-3.485-.014-6.97 0-10.454 0l-.007-.106zm3.759 29.649c-19.274 0-38.554 0-57.827-.013-1.114 0-2.234-.131-3.329-.319-.241-.046-.599-.612-.573-.905a2133.95 2133.95 0 0 1 2.039-21.423c.026-.273.482-.6.808-.729.313-.131.71-.033 1.068-.033 37.531 0 75.049.014 112.58-.039 1.504-.006 1.986.411 2.168 1.87.86 6.807 1.805 13.606 2.801 20.394.176 1.211-.025 1.55-1.295 1.537-14.408-.117-28.816-.17-43.218-.229-5.074-.025-10.155-.006-15.229-.006l.007-.105z"/><path d="M478.736 433.706c-1.491-3.348-2.938-6.722-4.624-9.979-7.628-14.786-15.327-29.526-23.032-44.278-.332-.646-.932-1.146-1.381-1.732-.117-.157-.254-.379-.254-.561.098-14.284.241-28.568.293-42.846.272-73.46.526-146.919.756-220.378.006-.938-.17-1.622-.958-2.241-3.816-2.996-7.588-6.044-11.379-9.08H44.312c-3.237 2.241-6.429 4.553-9.731 6.696-2.156 1.407-2.774 3.354-2.762 5.764.241 40.149.658 80.292.645 120.448-.02 46.194-.45 92.4-.677 138.602-.007.807-.6 2.116 1.133 2.077.032 0 .15.411.084.567-.15.384-.378.723-.573 1.088-7.139 12.909-14.245 25.832-21.423 38.723-1.55 2.768-3.465 5.327-4.95 8.122-1.439 2.716-3.413 5.08-4.807 7.816-.124.228-.352.43-.377.664-.463 3.589-.912 7.21.241 10.722.645 1.967 1.661 3.829 2.638 5.673.273.501 1.009 1.042 1.55 1.068 10.903.442 21.82.769 32.737 1.198 13.06.521 26.119 1.14 39.179 1.7 6.813.293 13.626.599 20.446.808 1.342.039 1.746.43 1.681 1.784-.528 10.852-.964 21.71-1.479 32.562-.071 1.479-.488 2.931-.638 4.409-.065.587-.143 1.518 1.023.971.091.261.299.554.247.775-.977 3.928-1.993 7.836-3.002 11.75-1.713 6.638-3.335 13.301-5.172 19.899-.866 3.106.534 5.712 1.316 8.467.104.358 1.081.651 1.661.658 8.768.13 17.528.176 26.302.293 17.228.229 34.45.482 51.678.717.358.007.71-.11 1.068-.176-.391-.092-.775-.248-1.166-.254-5.888-.137-11.79-.287-17.678-.365-4.351-.052-8.702-.006-13.053-.006v-.482h96.986v.378l-2.254.176.007.065c3.96 0 7.933.039 11.894-.007 17.996-.195 35.986-.41 53.983-.605 13.991-.156 27.995-.3 41.986-.437 13.945-.144 27.878-.326 41.823-.378 2.879-.013 4.657-1.805 6.689-3.296.403-.3.781-.71 1.237-.893.854-.345 1.016-.893.795-1.713-.137-.521-.431-1.225-.222-1.583.684-1.133.3-2.162.032-3.243-2.547-10.337-5.126-20.668-7.581-31.03-.443-1.87-.476-3.863-.515-5.804-.156-7.946-.339-15.894-.287-23.84.02-2.077.866-4.155 1.276-6.24.137-.677.358-1.523.085-2.064-.651-1.315.144-1.166.938-1.186l22.758-.651c17.58-.521 35.16-1.029 52.733-1.589 2.24-.072 4.475-.41 6.716-.619.104-.013.228-.006.299-.064 1.72-1.505 4.208-1.616 5.85-3.42 1.315-1.459 3.067-2.527 4.624-3.765v-5.543h.001c-.514-1.438-.945-2.904-1.57-4.292zM42.552 113.755h397.314v256.518H42.552V113.755zm340.644 410.509c-.404.046-.71.625-1.114.873-.462.279-.97.651-1.452.657-4.872.059-9.744.046-14.616.053h-54.902c-17.652.13-39.445.293-61.221.417-1.133.006-2.279-.509-3.406-.456-24.582 1.12-49.184.273-73.779.437-21.384.149-42.768.013-64.151 0-2.325 0-4.566-.17-6.644-1.492-.742-.469-1.889-.364-2.846-.391-1.127-.02-1.355-.404-1.036-1.505 1.974-6.885 3.895-13.782 5.836-20.687.365-1.276.619-2.605 1.075-3.843 2.612-7.035 2.808-14.435 3.368-21.781.534-7.009 1.055-14.011 1.603-21.013.11-1.537 1.087-2.208 2.579-2.11 3.199.204 6.402.343 9.607.417 2.905.064 5.823.025 8.735.006 3.875-.02 7.744-.071 11.626-.104 4.748-.039 9.503-.104 14.251-.117 7.119-.026 14.239-.02 21.358-.02 14.501-.016 29.002-.005 43.503.032l21.67.085c1.075.006 2.156 0 3.23-.007.195-.007.555-.02.574-.091.475-1.824 1.855-.873 2.813-.873 30.405-.014 60.81.013 91.215.039 10.565.006 21.123.02 31.688.046 2.677.006 3.55.931 3.55 3.608.007 6.768.013 13.535 0 20.309-.007 8.318.912 16.506 3.113 24.556 1.805 6.611 3.374 13.295 5.042 19.944.098.392.13.809.195 1.212.184 1.14-.305 1.662-1.464 1.799zm96.14-81.81c-3.12 2.24-6.26 4.462-9.445 6.611-.54.364-1.342.469-2.032.501-10.552.469-21.097 1.212-31.655 1.283-25.221.176-50.447.065-75.674 0-26.822-.064-53.639-.222-80.455-.306-14.304-.046-28.62-.007-42.924-.007v-.202l-126.147-.462-76.306-.312c-9.379-.039-18.765-.117-28.145-.117-1.114 0-1.537-.378-1.922-1.414-1.446-3.889-.82-7.895-.866-11.867-.026-2.977 1.003-5.504 2.436-8.063 9.282-16.649 18.485-33.337 27.669-50.03.606-1.102 1.25-1.446 2.508-1.381 12.336.689 24.686 1.146 37.016 1.973 17.756 1.192 35.518.516 53.281.535 93.026.104 186.045.045 279.064.098.834 0 2.215-.951 2.612.794.176-.11.352-.234.54-.325.58-.28 1.173-.781 1.759-.789 12.461-.025 24.921.02 37.381.014.867 0 1.375.229 1.792 1.049 8.806 17.071 17.703 34.085 26.405 51.209 1.609 3.172 2.437 6.735 3.569 10.129.093.284-.182.877-.461 1.079z"/></svg>
