<svg viewBox="0 0 116.603 116.31"><g fill-rule="evenodd" clip-rule="evenodd"><path fill="#FFF" d="M3.682 101.794c10.279-.636 20.56-1.246 30.84-1.889 24.144-1.506 48.287-3.025 72.429-4.539.002.013.002.025.002.038 1.767-.099 3.535-.159 5.298-.315.678-.061 1.341-.338 2.012-.517-.352-.717-.593-1.535-1.071-2.136-6.387-8.018-12.875-15.941-19.188-24.028-3.009-3.854-5.25-2.905-10.705-2.964-.658-.007-1.385.207-2.088.229-7.188.222-14.376.585-21.566.611-16.514.061-32.683.255-49.544.117-2.311-.278-3.28.729-3.753 3.217-1.804 9.488-3.834 18.929-5.74 28.396-.717 3.566-.321 3.989 3.074 3.78z"/><path d="M13.518 83.013c-3.492.13-3.886-.31-3.254-4.076 1.638-9.757.124-7.894 9.009-8.09 21.458-.47 42.919-.843 64.373-1.416 2.879-.075 4.987.518 6.558 3.155.934 1.568 2.252 2.877 3.271 4.396.509.762.734 1.736 1.089 2.613-.852.252-1.695.696-2.556.727-9.192.326-18.386.624-27.581.849-4.122.1-8.201.314-12.325.314.756.379-25.74 1.052-38.584 1.528zM57.738 83.108c3.959 0 7.921.09 11.876-.042 1.713-.059 2.848.387 3.684 2.041 1.261 2.488 2.665 4.901 4.092 7.291.958 1.604.443 2.152-1.16 2.26-9.771.653-19.536 1.377-29.312 1.914-.792.044-2.12-.969-2.383-1.785-.86-2.66-1.293-5.473-1.99-8.198-.479-1.879.306-2.451 1.916-2.445 4.425.012 13.392-.394 13.277-1.036z"/><path d="M115.708 92.742c-7.166-8.774-14.422-17.469-21.525-26.299-.956-1.19-1.681-3.004-1.7-4.539-.062-5.039.141-10.09.441-15.122.757-12.653 1.657-25.298 2.425-37.951.223-3.688-.104-3.938-3.662-4.161-.699-.044-1.402-.032-2.104-.065-20.086-.948-40.176-1.842-60.258-2.884C22.465 1.365 15.622.644 8.773.068c-4.576-.386-5.65.79-5.122 5.678.132 1.222.319 2.44.378 3.667.882 18.205 1.757 36.41 2.594 54.616.062 1.332-.065 2.706-.312 4.016A5743.357 5743.357 0 0 1 .396 98.787c-.943 4.839-.443 5.487 4.208 5.158 5.596-.398 11.205-.679 16.784-1.255 2.484-.258 3.046.889 3.215 3.185.135 1.839-.183 3.655-.125 5.5-.618 5.253 1.151 5.099 5.554 4.831 4.552-.275 9.099-.63 13.648-.949l-.009-.188c13.307-.732 26.616-1.418 39.917-2.251 1.923-.12 2.823.045 4.639-.693 2.013-.82 2-1.125 1.542-3.282-2.312-2.739-4.47-5.625-6.687-8.455-1.193-1.527-.108-1.489.94-1.539 2.452-.115 4.903-.273 7.354-.399 7.466-.384 14.934-.704 22.392-1.193 1.299-.085 1.584-.756 2.834-1.506-.124-1.751-.126-2.07-.894-3.009zM6.109 11.237c-.057-1.163-.234-2.32-.359-3.479-.502-4.638.518-5.753 4.859-5.387 6.499.548 12.991 1.23 19.499 1.568 19.053.989 38.112 1.837 57.169 2.738.665.032 1.333.02 1.997.062 3.375.211 3.685.449 3.474 3.947-.729 12.004-1.583 24.002-2.3 36.007-.286 4.772-.479 9.565-.42 14.347.017 1.272.543 2.746 1.281 3.85l-72.472 1.367c-2.024-.007-4.057-.019-6.101-.034-.764-.092-1.364-.024-1.85.184l-2.546.046c.187-1.118.282-2.274.23-3.4-.794-17.272-1.624-34.545-2.461-51.816zm79.953 95.886c1.619 2.332 1.473 2.668-1.322 2.887-6.977.546-13.956 1.039-20.938 1.519-10.701.733-20.995 1.88-31.698 2.597-6.625.75-6.565-1.309-6.159-6.745.372-4.984-2.216-5.63 5.411-5.445 8.961-.5 17.917-1.091 26.874-1.651 6.407-.401 12.817-.772 19.218-1.252 1.797-.135 3.08.312 4.138 1.963 1.366 2.13 3.032 4.046 4.476 6.127zm26.207-12.061c-1.747.15-3.5.209-5.251.304l-.002-.036c-23.932 1.461-47.862 2.928-71.794 4.382-10.19.62-20.38 1.21-30.57 1.823-3.365.202-3.758-.207-3.047-3.649 1.889-9.14 3.901-18.253 5.689-27.413.469-2.401 1.43-3.374 3.72-3.105 16.713.133 32.74-.055 49.111-.113 7.126-.025 14.251-.376 21.376-.59.696-.021 1.417-.228 2.069-.221 5.407.057 7.629-.86 10.611 2.861 6.257 7.807 12.688 15.457 19.02 23.197.474.579.713 1.369 1.062 2.062-.665.172-1.322.439-1.994.498z"/></g></svg>
