<svg xmlns="http://www.w3.org/2000/svg" width="50" height="50" viewBox="0 0 50 50"><path fill="#F3F3F3" d="M12.187 22.531a.468.468 0 0 0-.234-.408l-3.881-2.232a.442.442 0 0 0-.214-.062h-.041a.441.441 0 0 0-.213.062l-3.88 2.232a.47.47 0 0 0-.235.408l.009 6.014a.23.23 0 0 0 .117.2.22.22 0 0 0 .234 0l2.305-1.32a.475.475 0 0 0 .233-.406v-2.812c0-.165.089-.32.234-.403l.983-.567a.47.47 0 0 1 .468 0l.981.567a.465.465 0 0 1 .233.403v2.812c0 .166.09.318.235.406l2.306 1.32a.22.22 0 0 0 .234 0 .236.236 0 0 0 .117-.2l.007-6.014h.002zm20.72-8.266a.225.225 0 0 0-.231.003.23.23 0 0 0-.115.201v5.955a.165.165 0 0 1-.247.141l-.972-.558a.466.466 0 0 0-.468 0l-3.884 2.24a.468.468 0 0 0-.234.405v4.482c0 .166.089.32.233.403l3.882 2.242a.477.477 0 0 0 .471 0l3.883-2.242a.465.465 0 0 0 .232-.403V15.963a.467.467 0 0 0-.239-.41l-2.313-1.288h.002zm-.358 11.396a.113.113 0 0 1-.061.103l-1.33.768a.116.116 0 0 1-.117 0l-1.336-.768a.121.121 0 0 1-.059-.103v-1.54c0-.041.023-.079.059-.1l1.336-.772a.122.122 0 0 1 .117 0l1.33.772a.123.123 0 0 1 .061.1v1.54zm14.247-1.577a.47.47 0 0 0 .235-.409v-1.082a.474.474 0 0 0-.235-.408l-3.856-2.239a.465.465 0 0 0-.47 0l-3.881 2.239a.466.466 0 0 0-.234.408v4.479c0 .169.089.324.238.407l3.856 2.197a.466.466 0 0 0 .46.002l2.334-1.296a.24.24 0 0 0 .117-.205.23.23 0 0 0-.113-.207l-3.908-2.241a.227.227 0 0 1-.117-.203v-1.405a.23.23 0 0 1 .117-.2l1.218-.701a.243.243 0 0 1 .231 0l1.217.701a.232.232 0 0 1 .117.2v1.106c0 .084.046.159.117.205a.242.242 0 0 0 .236 0l2.323-1.353-.002.005zm-27.549-4.162a.475.475 0 0 1 .47 0l3.88 2.242a.461.461 0 0 1 .234.405v4.481c0 .17-.091.322-.234.404l-3.88 2.246a.475.475 0 0 1-.47 0l-3.881-2.246a.464.464 0 0 1-.234-.404v-4.481c0-.17.089-.322.234-.405l3.881-2.242zm5.938 20.135a.76.76 0 0 1-.383-.103l-1.222-.72c-.183-.104-.093-.138-.035-.162a2.55 2.55 0 0 0 .554-.249c.024-.018.063-.011.089.006l.941.558a.11.11 0 0 0 .113 0l3.661-2.114c.034-.017.054-.058.054-.096V32.95c0-.04-.02-.078-.059-.1l-3.656-2.112a.12.12 0 0 0-.113 0l-3.66 2.112a.117.117 0 0 0-.059.1v4.227c0 .038.024.075.055.096l1.003.579c.543.273.878-.049.878-.371V33.31c0-.055.048-.104.104-.104h.466c.056 0 .104.049.104.104v4.171c0 .728-.395 1.143-1.083 1.143-.211 0-.38 0-.844-.229l-.958-.549a.775.775 0 0 1-.383-.668V32.95c0-.272.146-.531.383-.667l3.659-2.114a.801.801 0 0 1 .769 0l3.662 2.114a.78.78 0 0 1 .383.667v4.227a.781.781 0 0 1-.383.668l-3.662 2.109a.762.762 0 0 1-.384.103h.006zm1.13-2.908c-1.601 0-1.935-.737-1.935-1.353 0-.059.044-.104.106-.104h.474c.052 0 .097.039.103.091.07.48.285.726 1.251.726.772 0 1.101-.175 1.101-.585 0-.234-.09-.41-1.29-.524-1-.101-1.619-.322-1.619-1.125 0-.736.623-1.179 1.664-1.179 1.173 0 1.753.408 1.826 1.283a.094.094 0 0 1-.028.079.1.1 0 0 1-.079.035h-.474a.105.105 0 0 1-.101-.083c-.114-.508-.394-.672-1.145-.672-.841 0-.939.295-.939.517 0 .267.117.342 1.251.493 1.127.149 1.659.361 1.659 1.15 0 .794-.663 1.251-1.822 1.251h-.003zm16.331-13.276a.096.096 0 0 1 .09 0l.747.432a.087.087 0 0 1 .045.076v.861a.096.096 0 0 1-.045.08l-.747.428a.082.082 0 0 1-.09 0l-.744-.428a.097.097 0 0 1-.045-.08v-.861c0-.03.017-.062.045-.076l.744-.432z"/></svg>