<svg xmlns="http://www.w3.org/2000/svg" width="50" height="50" viewBox="0 0 50 50"><path fill="#F3F3F3" d="M2.333 16.342V31.37h12.51v2.521h9.991V31.37h22.5V16.342H2.333zm12.511 5.038v7.472h-2.52V21.38H9.805v7.472H4.853v-9.99h4.952v-.001h5.039v2.519zm12.51 7.472h-4.953v2.52h-5.039v-12.51h9.992v9.99zm17.548-9.817v9.817h-2.521V21.38H39.86v7.472h-2.518V21.38h-2.52v7.472h-4.951v-9.99h4.951v-.001H44.9v.174z"/><path fill="none" d="M0 0h50v50H0z"/><path fill="#F3F3F3" d="M22.084 21.75h2.833v4.75h-2.833z"/></svg>
