<svg viewBox="0 0 727.921 691.253"><path fill="#FFF" d="M82.918 312.162L7.315 358.524l716.658 6.512-83.037-52.034z"/><path fill-rule="evenodd" clip-rule="evenodd" d="M359.624 311.73c90.181 0 180.356.052 270.539-.099 7.405-.012 13.217 1.509 18.948 4.965 24.107 14.531 48.634 28.678 72.602 43.334 3.207 1.961 5.823 6.032 5.837 9.134.316 65.528.125 131.056.371 196.587.018 5.673-1.819 7.711-9.62 7.289-9.489-.513-19.076-.356-28.597-.037-6.052.199-7.961-1.337-7.896-5.897.276-20.395.116-40.791.116-61.188 0-32.766.036-65.53-.023-98.294-.018-10.118 1.497-9.241-11.841-9.119-6.646.061-13.331.666-19.925.279-9.2-.535-11.697 2.743-12.021 9.01-1.048 20.151-2.604 40.287-4.001 60.428-.45 6.496-1.203 12.988-1.444 19.49-.117 3.257-1.516 4.928-6.098 4.495-.569-.055-1.156.01-1.731-.004-8.323-.193-19.613 1.955-24.124-1.258-4.345-3.095-2.002-11.729-2.041-17.934-.144-23-.243-46.002.084-68.999.073-5.13-1.341-7.096-8.887-7.194-23.935-.315-47.851-1.854-71.779-1.948-35.234-.141-70.479.903-105.718.827-95.594-.208-191.186-.673-286.779-1.3-6.342-.042-6.801 1.355-6.771 5.354.214 28.641-.05 57.285.202 85.924.044 4.969-1.54 7.146-8.635 6.624-6.011-.444-12.137-.263-18.194-.045-5.227.188-7.162-1.368-7.213-5.286-.369-28.625-1.137-57.249-1.244-85.876-.021-5.524-2.235-7.278-9.332-6.814-6.023.391-12.16.331-18.191-.039-6.785-.415-8.958 1.39-8.898 6.578.261 22.562-.099 45.126-.089 67.692.012 32.109-.003 64.225.366 96.336.071 6.102-2.135 8.728-10.829 8.194-8.898-.547-17.957-.564-26.852.008-8.407.54-9.925-2.035-9.889-7.733.276-43.831.151-87.661.15-131.491 0-22.785.22-45.569-.176-68.35-.089-5.197 2.409-8.389 7.647-11.406 21.544-12.414 42.983-24.938 64.152-37.709 5.548-3.346 11.123-4.63 18.158-4.619 89.889.136 179.777.09 269.666.091zm6.061 50.959c.001-.205.004-.409.006-.614 13.295 0 26.592-.145 39.885.023 103.168 1.3 206.336 2.669 309.508 3.951 2.956.038 5.925-.66 8.89-1.014-2.092-1.69-3.931-3.618-6.311-5.037-23.545-14.02-47.282-27.859-70.715-41.985-6.404-3.86-12.929-5.675-21.303-5.603-42.774.365-85.559.409-128.335.412-135.28.01-270.562-.089-405.84.086-5.03.008-10.893 1.608-14.938 3.892-21.477 12.125-42.52 24.686-63.636 37.171-2.13 1.26-3.732 3.024-5.58 4.553 2.696.392 5.389 1.104 8.094 1.13 116.757 1.049 233.515 2.04 350.275 3.035z"/><path d="M242.149 253.002h51.141a78.01 78.01 0 0 0-.116-3.317c-.2-3.298-.576-6.586-.93-9.873-.109-1.014-.312-1.782-1.838-1.575-3.049.414-3.387.06-5.668-3.148-.246-.346-1.105-.611-1.472-.448-1.047.466-1.934 1.291-2.98 1.754-1.259.559-1.843.705-2.616-1.275-1.483-3.798-4.123-3.585-6.189.06-.241.424-.306.944-.504 1.397-1.281 2.922-3.211 5.782-5.989 6.878-2.859 1.13-1.394 2.547-.892 3.547h.104c.086 0 .172.14.258.228-.111-.062-.222-.142-.333-.205l-.029-.083c-.634.004-1.268.004-1.901.008.006.023.014.042.02.065-.083.12-.167.267-.251.386.062-.142.123-.399.184-.399h.047c-.974-4-4.441-4.887-7.298-6.591-.234-.14-1.079.312-1.321.697-.43.683-.616 1.511-.903 2.284-.455-.834-1.091-1.623-1.326-2.515-.507-1.921-.814-3.896-1.2-5.849-1.138-.411-3.233.74-3.058-1.933.016-.247-1.091-.772-1.704-.821-2.412-.191-4.105 1.29-4.039 3.786.138 5.144.47 10.283.729 15.424.026.506.05 1.012.074 1.518zm1.472-17.469c.228-.37.63-.631.961-.937l.325.949-1.062.821c-.085-.284-.328-.665-.224-.833zM179.123 253.002h51.255c-1.926-1.393-4.136-4.898-3.828-6.498.155-.808.613-1.563.725-2.372.305-2.204-.414-3.094-2.676-2.739-2.759.432-4.439-.497-5.451-3.03-.295-.739-.783-1.528-1.408-1.987-2.549-1.869-3.199-4.513-3.367-7.434-.297-5.143-.687-10.279-.921-15.424-.059-1.283.298-2.591.519-3.878.103-.602.678-1.426.458-1.732-2.392-3.328.141-4.552 2.314-6.272 3.273-2.591 4.014-7.875.893-10.629-3.274-2.89-3.407-6.142-3.358-9.837.036-2.697.794-5.645-2.455-7.404-.522-.283-.477-1.845-.483-2.817-.082-11.649-.123-23.297-.175-34.946h-2c.269 1.969.786 3.942.759 5.907-.083 5.954-.407 11.903-.578 17.857-.133 4.655.511 9.465-.476 13.922-.819 3.7-.863 7.229-.495 10.802.212 2.053.227 3.506-1.744 4.603-.632.352-.968 1.235-1.434 1.886 3.423.401 6.856.74 10.259 1.274.525.083.906 1.079 1.354 1.652-.539.196-1.186.69-1.598.54-2.725-.996-4.805.249-6.951 1.65-.9.589-2.135 1.21-3.065 1.029-.662-.128-1.068-1.572-1.818-2.809-.6 3.003.178 5.104 2.096 6.696 1.254 1.042 3.332 1.516 3.952 2.778.663 1.35-.109 3.339.019 5.028.412 5.442.998 10.871 1.423 16.312.295 3.776.015 4.05-4.195 5.434-.307.102-.777.204-.857.421-1.536 4.176 9.164 1.009 7.92-.167-.957-.905-13.792-1.955-14.59-3.01-3.701-4.893-4.249-4.918-7.787-.216-2.368 3.146-2.987 3.141-5.382-.048-.299-.397-.515-.875-.87-1.208-1.312-1.229-2.555-2.994-4.645-2.16-2.001.799-1.342 2.875-1.346 4.409-.019 8.14-.01 16.279.007 24.417z"/><path fill="none" d="M.177 540.936V9.002h708.911v531.934H.177zm315.93-261.905c.683 5.167-3.355 3.135-5.354 3.139-52.812.108-105.624.102-158.435-.007-2.449-.005-4.896-1.135-8.157-1.942l-.695 7.037h176.022l1.683-1.628-4.989-6.67c-.105-2.321-.303-4.644-.303-6.966-.017-77.458-.011-154.916-.029-232.375 0-2.245-.227-4.491-.329-6.389-56.087-15.703-111.52-16.379-166.651-.326v245.793h6.856c51.306 0 102.611-.004 153.917.014 2.155 0 4.309.209 6.464.32z"/><path fill-rule="evenodd" clip-rule="evenodd" d="M316.107 279.032c-2.155-.111-4.309-.32-6.463-.321-51.306-.018-102.611-.014-153.917-.014h-6.856V32.904c55.131-16.053 110.564-15.377 166.651.326.103 1.898.329 4.144.329 6.389.019 77.459.013 154.917.029 232.375 0 2.322.197 4.645.303 6.966l-.076.072zm-24.082-27.047V137.062h-48.676v114.923h48.676zM181.264 136.969v114.932h41.687V136.969h-41.687zm63.053-24.453h47.732V63.201h-47.732v49.315zm-77.987 19.101v132.624h56.632v-9.771h-44.156V133.602h44.363l-.051-1.985H166.33zm56.831-68.216H181.21v49.409h41.951V63.401zm76.943 67.432c-19.336.229-38.036-.666-56.683.437l.001 2.762h51.063V254.87H243.35v9.934h56.754V130.833zm-122.209-18.095V59.735h44.965v-9.467h-56.516v61.788l11.551.682zm65.36-52.672h51.709v52.733h4.774V50.326h-56.483v9.74z"/><path fill-rule="evenodd" clip-rule="evenodd" d="M316.182 278.959l4.989 6.67-1.683 1.628H143.466l.695-7.037c3.261.808 5.708 1.938 8.157 1.942 52.812.108 105.624.115 158.435.007 1.999-.004 6.037 2.028 5.354-3.138l.075-.072z"/><path clip-rule="evenodd" fill="none" d="M292.025 251.985h-48.676V137.062h48.676v114.923zM244.317 112.516V63.201h47.732v49.315h-47.732zM166.33 131.617h56.789l.051 1.985h-44.363V254.47h44.156v9.771h-56.632l-.001-132.624zM223.161 63.401v49.409H181.21V63.401h41.951z"/><path clip-rule="evenodd" fill="none" d="M300.104 130.833v133.971H243.35v-9.934h51.135V134.032h-51.063l-.001-2.762c18.647-1.102 37.347-.207 56.683-.437zM177.895 112.738l-11.55-.682V50.268h56.516v9.467h-44.965l-.001 53.003zM243.255 60.066v-9.739h56.483V112.8h-4.774V60.067l-51.709-.001z"/><g><path fill-rule="evenodd" clip-rule="evenodd" d="M634.45 284.944l13.772-17.822.966.668c-5.838 10.117-14.24 18.914-16.749 31.027l8.937 1.683c-.169 1.503-.229 2.916-.501 4.288-1.228 6.219-2.938 12.377-3.666 18.651-.773 6.65-4.296 11.398-9.147 16.192l-19.353-5.727-7.267-29.164 9.711-4.858-3.203-11.118c.281-.082.562-.165.844-.246 1.009 2.669 2.017 5.337 3.024 8.007-.728-15.386-2.001-30.557-10.386-44.1l3.009 1.785.674-4.311 2.938 12.009c.425-.037.849-.077 1.273-.115l-1.047-19.093.481-.141a2507.01 2507.01 0 0 0 1.948 3.778l1.964-3.793c.327.042.655.082.983.123-4.543 15.126-.866 29.753 2.477 44.438 0-6.035.106-12.072-.03-18.103-.141-6.183-.521-12.36-.095-18.62l3.434 22.18c.184-3.884.422-6.795.427-9.708.006-3.095-.06-6.206-.371-9.283-.306-3.013-.96-5.992-.823-9.262.812 1.079 1.627 2.158 2.582 3.425l1.777-3.227c.197 1.596.074 2.661.503 3.411.33.582 1.352.769 2.238 1.22.172 15.434-.711 30.993.91 46.462l1.58.058 3.669-52.471c3.104 10.844-.615 21.503 1.08 32.137l5.284-36.801 1.277.136c-.559 5.024-1.181 10.042-1.659 15.074-.486 5.132-.572 10.317-1.315 15.408-.75 5.141-2.09 10.196-3.171 15.29.342.171.681.341 1.021.513zm-10.52-14.493c-.868-6.828 2.687-13.892-.874-20.653-2.288 6.943-.701 13.778.874 20.653z"/></g><g><path fill-rule="evenodd" clip-rule="evenodd" d="M258.135 300.04c9.569-3.275 22.023-1.784 25.36 3.028 3.967-.01 8.047 1.023 8.362 5.697.471 6.996-5.563 9.072-10.41 11.711-3.693 7.947-10.194 7.354-17.02 6.039-1.806-.349-4.345-2.362-4.665-3.984-1.313-6.625-1.937-13.391-2.692-20.119-.077-.698.647-1.486 1.065-2.372zm23.277 16.945l1.374.968c1.898-1.402 4.467-2.434 5.51-4.312 1.069-1.925 1.372-4.968.58-6.95-.416-1.042-3.893-.86-6.304-1.286l-1.16 11.58z"/></g><g><path fill="none" d="M74.445 348.201C73.308 233.522 72.172 118.843 71 4.165c-.013-1.285.273-1.577 1.558-1.589C244.348.905 416.137-.799 587.927-2.537c1.284-.013 1.576.273 1.589 1.558 2.242 229.357 4.518 458.715 6.826 688.072.013 1.284-.273 1.577-1.558 1.59-171.791 1.67-343.58 3.374-515.369 5.112-1.285.013-1.577-.274-1.589-1.559-1.103-114.678-2.243-229.357-3.381-344.035zm148.552 100.388a.081.081 0 0 1-.022 0c-.182 4.278-.49 8.557-.521 12.837-.074 9.991-1.771 19.953-.319 29.983.611 4.226.611 8.54.894 12.812.857 12.934 1.716 25.866 2.577 38.799 1.164 17.49 2.336 34.979 3.496 52.471.71 10.706 1.387 21.415 2.142 32.118.049.693.565 1.408 1.006 2.011 1.154 1.576 2.624.773 4.043.462 1.052-.23 1.469-.677 1.375-1.857-.406-5.123-.688-10.255-1.036-15.382-1.035-15.324-2.078-30.648-3.12-45.972-.729-10.709-1.468-21.418-2.198-32.129-.989-14.525-1.978-29.052-2.953-43.58-.138-2.064-.102-2.081 1.976-2.105 6.224-.075 12.448-.137 18.673-.207 2.426-.026 2.382-.026 2.708 2.321.957 6.896 1.962 13.785 2.925 20.679.159 1.142.857 1.572 1.878 1.552.983-.021 2.067.492 2.645-1.071.768-2.079-.049-3.947-.353-5.869-.804-5.072-1.771-10.118-2.63-15.182-.35-2.063-.17-2.283 1.539-2.274 22.668.116 45.337.226 68.005.369 6.845.043 13.69.255 20.536.272 12.163.033 24.324-.015 36.484-.055.995-.004 1.312.323 1.177 1.307-.381 2.771-.702 5.548-1.047 8.324-.492 3.964-1.093 7.919-1.405 11.898-.09 1.139.483 2.452 1.12 3.449.189.297 1.629-.224 2.501-.339 1.196-.159 1.715-.76 1.772-2.024.125-2.735.411-5.465.633-8.195.318-3.925.667-7.849.938-11.776.102-1.468.521-2.18 2.229-2.115 4.563.177 9.134.163 13.701.169.971 0 1.315.309 1.252 1.281-.139 2.107-.2 4.22-.297 6.33-.532 11.465-1.07 22.929-1.598 34.393-.609 13.232-1.201 26.465-1.815 39.697-.521 11.235-1.118 22.469-1.572 33.707-.314 7.808-.466 15.623-.638 23.438-.033 1.529 1.312 2.543 2.827 2.315.62-.094 1.234-.232 1.855-.322.786-.114 1.121-.468 1.164-1.341.542-11.063 1.134-22.125 1.704-33.187.608-11.805 1.205-23.608 1.814-35.411.733-14.198 1.483-28.396 2.211-42.595.501-9.808.963-19.617 1.492-29.423.039-.717.479-1.413.752-2.112.309-.793.833-1.562.899-2.371.057-.692-.609-1.428-.601-2.141.149-13.306.453-26.609.507-39.913.038-9.556.782-19.038 2.044-28.496.118-.887.407-1.28 1.342-1.379 2.895-.308 5.803-.579 8.659-1.113 3.713-.696 6.023-3.723 8.926-5.762.04-.029.063-.101.068-.154.226-2.773 1.118-5.697.546-8.297-1.782-8.121-3.772-16.23-7.89-23.612-1.275-2.288-2.513-4.648-3.353-7.117-1.193-3.506-3.207-5.209-7.037-4.641-1.478.219-2.416-.946-2.232-2.483.696-5.835 1.425-11.667 2.201-17.491.382-2.866 1.524-5.659.812-8.617-.122-.51-.343-1.265-.707-1.402-2.012-.761-4.051-1.768-6.139-1.935-3.679-.294-7.411-.239-11.098.022-8.084.57-16.15 1.398-24.229 2.047-5.4.433-10.81.994-16.218 1.04-9.077.077-18.163-.477-27.235-.288-18.408.381-36.748-.602-55.09-1.933-13.558-.984-27.027-2.664-40.468-4.612-6.821-.989-6.789-.993-12.964 2.113-1.382.694-1.647 1.48-1.506 2.929.823 8.461 1.556 16.933 2.268 25.404.191 2.271.086 2.498-2.235 2.258-2.896-.299-4.959.631-6.368 3.129-.224.396-.461.788-.667 1.193-2.746 5.392-5.494 10.781-8.221 16.181-.358.71-.688 1.451-.897 2.214-1.184 4.29-2.354 8.583-3.456 12.893-.17.667-.053 1.444.08 2.142.595 3.134 2.685 5.354 4.774 7.546.524.551 1.228 1.059 1.944 1.277 4.303 1.309 8.619 2.582 12.964 3.744 1.184.315 1.695.677 1.634 2.018-.568 12.377-1.062 24.757-1.577 37.136zm46.314 87.798c-.26-.211-.359-.354-.469-.365-.141-.014-.292.083-.438.133.054.129.099.361.166.368.179.019.37-.059.741-.136z"/><path fill-rule="evenodd" clip-rule="evenodd" d="M222.997 448.589c.515-12.379 1.01-24.76 1.576-37.138.062-1.341-.45-1.702-1.634-2.018-4.345-1.162-8.661-2.436-12.964-3.744-.716-.219-1.42-.727-1.944-1.277-2.089-2.191-4.179-4.412-4.774-7.546-.132-.697-.25-1.475-.08-2.142 1.102-4.31 2.272-8.603 3.456-12.893.21-.763.539-1.504.897-2.214 2.728-5.399 5.476-10.789 8.221-16.181.207-.405.443-.797.667-1.193 1.409-2.498 3.472-3.428 6.368-3.129 2.321.24 2.426.014 2.235-2.258-.712-8.472-1.445-16.943-2.268-25.404-.141-1.448.124-2.234 1.506-2.929 6.175-3.106 6.143-3.103 12.964-2.113 13.441 1.948 26.91 3.628 40.468 4.612 18.342 1.331 36.682 2.313 55.09 1.933 9.072-.188 18.158.365 27.235.288 5.408-.046 10.817-.607 16.218-1.04 8.079-.648 16.146-1.477 24.229-2.047 3.687-.262 7.419-.316 11.098-.022 2.088.167 4.127 1.174 6.139 1.935.364.138.585.893.707 1.402.712 2.958-.431 5.751-.812 8.617a1282.944 1282.944 0 0 0-2.201 17.491c-.184 1.537.755 2.702 2.232 2.483 3.83-.568 5.844 1.135 7.037 4.641.84 2.469 2.077 4.829 3.353 7.117 4.117 7.382 6.107 15.491 7.89 23.612.572 2.6-.32 5.523-.546 8.297-.005.054-.028.125-.068.154-2.902 2.039-5.213 5.065-8.926 5.762-2.856.534-5.765.806-8.659 1.113-.935.099-1.224.492-1.342 1.379-1.262 9.458-2.006 18.94-2.044 28.496-.054 13.304-.357 26.607-.507 39.913-.009.713.657 1.448.601 2.141-.066.81-.591 1.578-.899 2.371-.272.699-.713 1.396-.752 2.112-.529 9.806-.991 19.615-1.492 29.423-.728 14.198-1.478 28.396-2.211 42.595-.609 11.803-1.206 23.606-1.814 35.411-.57 11.062-1.162 22.123-1.704 33.187-.043.873-.378 1.227-1.164 1.341-.621.09-1.235.229-1.855.322-1.515.228-2.86-.786-2.827-2.315.172-7.814.323-15.63.638-23.438.454-11.238 1.052-22.472 1.572-33.707.614-13.232 1.206-26.465 1.815-39.697.527-11.464 1.065-22.928 1.598-34.393.097-2.11.158-4.223.297-6.33.063-.973-.281-1.281-1.252-1.281-4.567-.006-9.138.008-13.701-.169-1.707-.064-2.127.647-2.229 2.115-.271 3.928-.619 7.852-.938 11.776-.222 2.73-.508 5.46-.633 8.195-.058 1.265-.576 1.865-1.772 2.024-.872.115-2.312.636-2.501.339-.637-.997-1.21-2.311-1.12-3.449.312-3.979.913-7.935 1.405-11.898.345-2.776.666-5.554 1.047-8.324.135-.983-.182-1.311-1.177-1.307-12.16.04-24.321.088-36.484.055-6.845-.018-13.69-.229-20.536-.272-22.668-.144-45.337-.253-68.005-.369-1.709-.009-1.889.211-1.539 2.274.859 5.063 1.826 10.109 2.63 15.182.304 1.922 1.121 3.79.353 5.869-.577 1.563-1.661 1.05-2.645 1.071-1.021.021-1.719-.41-1.878-1.552-.963-6.894-1.968-13.783-2.925-20.679-.326-2.348-.282-2.348-2.708-2.321-6.225.07-12.449.132-18.673.207-2.078.024-2.114.041-1.976 2.105.976 14.528 1.964 29.055 2.953 43.58.729 10.711 1.468 21.42 2.198 32.129 1.042 15.323 2.085 30.647 3.12 45.972.347 5.127.629 10.259 1.036 15.382.094 1.181-.323 1.627-1.375 1.857-1.419.312-2.889 1.114-4.043-.462-.441-.603-.957-1.317-1.006-2.011-.755-10.703-1.432-21.412-2.142-32.118-1.16-17.491-2.332-34.98-3.496-52.471-.861-12.933-1.719-25.865-2.577-38.799-.283-4.272-.283-8.587-.894-12.812-1.451-10.03.245-19.992.319-29.983.031-4.28.339-8.559.521-12.837a.046.046 0 0 0 .023.002zm197.547-63.275l.043.039c-.203-1.749-.37-3.504-.634-5.244-.065-.429-.452-.809-.69-1.211-.157.441-.426.875-.456 1.323-.229 3.401-.393 6.808-.612 10.211-.203 3.174-.494 6.342-.629 9.518-.022.516.447 1.335.901 1.538 1.817.814 4.978-1.107 4.997-3.088.021-2.191.023-4.448-.462-6.562-.516-2.244-1.614-4.354-2.458-6.524zm-198.675-10.063l.348-.021-.254-1.123c-.287.307-.709.566-.837.931-.481 1.372-.812 2.795-1.298 4.166-1.362 3.843-2.876 7.633-4.134 11.508-1.264 3.894-.255 5.736 3.549 7.147 1.875.695 2.859.289 3.116-1.645.298-2.24.604-4.565.312-6.775-.354-2.681-.196-5.377-.675-8.055-.355-1.987-.107-4.084-.127-6.133zm7.237 200.513l-.12-.522c-.013.16-.047.321-.034.479.02.235.074.468.113.701l.041-.658zm1.208 19.666l-.041-.524c-.027.104-.07.208-.077.313-.011.16.004.324.008.485l.11-.274zm.402 7.317l-.084.298c.028-.016.078-.024.083-.044.011-.053.002-.11.001-.254z"/><path fill-rule="evenodd" clip-rule="evenodd" d="M269.311 536.387c-.371.077-.562.155-.742.136-.067-.007-.112-.239-.166-.368.146-.05.298-.146.438-.133.111.011.21.154.47.365z"/><path clip-rule="evenodd" fill="none" d="M221.869 375.251c.02 2.049-.229 4.146.127 6.134.479 2.678.321 5.374.675 8.055.292 2.21-.014 4.535-.312 6.775-.257 1.934-1.241 2.34-3.116 1.645-3.805-1.411-4.813-3.254-3.549-7.147 1.258-3.875 2.772-7.665 4.134-11.508.485-1.371.817-2.794 1.298-4.166.128-.364.551-.624.837-.931l.254 1.123-.348.02zM420.544 385.314c.844 2.17 1.942 4.28 2.458 6.523.485 2.114.483 4.371.462 6.562-.02 1.98-3.18 3.902-4.997 3.088-.454-.203-.924-1.022-.901-1.538.135-3.176.426-6.344.629-9.518.22-3.403.384-6.81.612-10.211.03-.448.299-.882.456-1.323.238.402.625.782.69 1.211.264 1.74.431 3.495.635 5.246l-.506.742.28.121.182-.903zM229.106 575.764l-.041.658c-.04-.233-.093-.466-.113-.701-.013-.158.021-.319.034-.479l.12.522zM230.314 595.43l-.11.274c-.004-.161-.019-.325-.008-.485.007-.105.05-.21.077-.313.014.162.026.325.041.524zM230.716 602.747c.001.145.01.201-.001.254-.004.02-.054.028-.083.044l.084-.298z"/><path fill-rule="evenodd" clip-rule="evenodd" d="M420.544 385.314l-.182.904-.28-.121.506-.742-.044-.041z"/></g></svg>
