<svg xmlns="http://www.w3.org/2000/svg" x="0px" y="0px"
	 width="30px" height="29.995px" viewBox="241.007 241.015 30 29.995" enable-background="new 241.007 241.015 30 29.995">
<path fill="#F9F9F9" d="M270.871,264.924l-0.148-0.45c-0.354-1.052-1.513-2.147-2.578-2.437l-3.941-1.076
	c-1.068-0.291-2.594,0.1-3.375,0.882l-1.427,1.427c-5.184-1.401-9.25-5.467-10.648-10.649l1.426-1.426
	c0.782-0.782,1.173-2.305,0.882-3.374l-1.075-3.943c-0.291-1.067-1.389-2.226-2.438-2.576l-0.45-0.151
	c-1.051-0.35-2.55,0.004-3.333,0.786l-2.133,2.136c-0.382,0.379-0.625,1.463-0.625,1.467c-0.075,6.774,2.582,13.302,7.374,18.094
	c4.78,4.78,11.283,7.433,18.038,7.376c0.035,0,1.151-0.24,1.532-0.619l2.134-2.134C270.868,267.474,271.222,265.975,270.871,264.924
	z"/>
</svg>
