<svg xmlns="http://www.w3.org/2000/svg" width="50" height="50" viewBox="0 0 50 50">
  <g fill="#F3F3F3">
    <path d="M27.32 34.834c.72.416 2.064.715 3.514.715 2.75 0 4.83-1.433 4.83-4.1 0-1.784-.794-3-3.41-4.27-1.767-.915-2.055-1.332-2.055-1.93 0-.55.455-1.217 1.77-1.217 1.083 0 2.106.283 2.84.75.168.05.19-.033.19-.165v-2.284c0-.118.03-.25-.103-.334-.55-.25-1.52-.466-2.952-.466-2.916 0-4.584 1.782-4.584 3.932 0 1.917.994 3.068 3.36 4.2 1.683.868 2.07 1.4 2.07 2 0 .75-.55 1.3-1.866 1.3-1.1 0-2.486-.3-3.537-.982-.115-.086-.387-.035-.387.133v2.45c0 .132.206.216.32.267zM14.878 35h2.55c.15 0-.428.2-.428.066v-6.4c1 0 .98.033 1.614.033 3.767 0 6.99-1.817 6.99-6.05 0-3.233-1.72-5.768-6.338-5.768-1.65 0-3.534.034-4.6.084-.134 0-.667.084-.667.2v17.9c0 .15.745-.066.878-.066zM17 19.583c1-.017 1.256-.05 1.922-.05 2.217 0 3.695 1.066 3.695 3.183 0 2.65-2.076 3.333-4.026 3.333-.666 0-.59 0-1.59-.034v-6.433z"/>
  </g>
</svg>
