<svg xmlns="http://www.w3.org/2000/svg" width="50" height="50" viewBox="0 0 50 50">
  <path fill="#F3F3F3" d="M14.477 20.04h-7.19L4.18 35.776h3.69l.78-4.08h3.496c3.303.195 6.996-2.527 6.996-7.19 0-2.72-1.555-4.275-4.663-4.47h-.003zm-2.72 8.743H9.422l.972-5.828h2.526c1.36 0 2.333.583 2.333 1.75-.193 3.303-1.75 3.885-3.497 4.078zm15.737-8.744h-3.497l.777-4.08h-3.69l-3.11 15.737h3.692l1.75-8.742h2.914c1.36 0 1.36.583 1.165 1.555l-1.36 7.19h3.888l1.36-7.967c.387-1.943-.78-3.5-3.888-3.693zm13.02 0h-7.19l-3.107 15.738h3.69l.777-4.08h3.498c3.305.195 6.997-2.527 6.997-7.19 0-2.72-1.558-4.276-4.666-4.47zm-2.723 8.743h-2.33l.972-5.828h2.525c1.36 0 2.334.583 2.334 1.75-.192 3.303-1.75 3.885-3.5 4.078z"/>
</svg>
