<svg xmlns="http://www.w3.org/2000/svg" width="50" height="50" viewBox="0 0 50 50"><path fill="none" d="M4.238 25.039c0 3.091 3.019 5.977 7.777 7.603-.95 4.784-.17 8.641 2.435 10.143 2.678 1.544 6.668.475 10.453-2.834 3.691 3.175 7.421 4.425 10.024 2.918 2.675-1.548 3.489-5.665 2.513-10.599 4.956-1.638 7.729-4.099 7.729-7.23 0-3.02-3.023-5.632-7.718-7.248 1.051-5.137.16-8.899-2.553-10.463-2.616-1.508-6.39-.194-10.134 3.066-3.896-3.459-7.632-4.516-10.343-2.947-2.613 1.513-3.359 5.439-2.405 10.311-4.598 1.601-7.778 4.273-7.778 7.28z"/><path fill="#F3F3F3" d="M36.455 19.396a25.64 25.64 0 0 0-1.17-.369c.066-.27.127-.537.182-.798.885-4.3.306-7.764-1.671-8.904-1.897-1.094-4.998.046-8.13 2.771-.301.262-.603.54-.906.831a21.788 21.788 0 0 0-.603-.556c-3.282-2.914-6.572-4.143-8.548-2.999-1.894 1.096-2.455 4.353-1.658 8.427.077.394.167.796.269 1.204-.465.132-.915.273-1.345.423-3.848 1.344-6.305 3.446-6.305 5.628 0 2.253 2.638 4.513 6.646 5.882.317.108.646.211.983.309-.11.44-.205.874-.286 1.297-.76 4.003-.167 7.183 1.723 8.272 1.952 1.126 5.227-.03 8.417-2.818.252-.221.504-.454.758-.699.329.316.656.615.983.896 3.089 2.658 6.14 3.731 8.028 2.639 1.948-1.128 2.582-4.543 1.76-8.699a21.075 21.075 0 0 0-.218-.972c.229-.067.456-.138.676-.212 4.168-1.38 6.879-3.611 6.879-5.895 0-2.189-2.538-4.306-6.464-5.658zm-9.77-6.126c2.684-2.336 5.192-3.257 6.335-2.598 1.217.701 1.691 3.533.927 7.245-.05.237-.104.479-.164.723a36.918 36.918 0 0 0-4.86-.768 36.235 36.235 0 0 0-3.073-3.834c.279-.27.557-.527.835-.768zm-9.384 13.647a44.01 44.01 0 0 0 1.032 1.88c.367.637.749 1.26 1.141 1.867a32.725 32.725 0 0 1-3.35-.538c.32-1.036.717-2.113 1.177-3.209zm-.001-3.652a34.333 34.333 0 0 1-1.155-3.146 35.058 35.058 0 0 1 3.296-.565 46.029 46.029 0 0 0-2.141 3.711zm.825 1.826a44.16 44.16 0 0 1 3.308-5.737 44.414 44.414 0 0 1 6.626.001 46.615 46.615 0 0 1 1.752 2.796 51.54 51.54 0 0 1 1.567 2.917 49.707 49.707 0 0 1-3.306 5.754 50.049 50.049 0 0 1-6.62.013 44.061 44.061 0 0 1-3.327-5.744zm13.036 3.696c.371-.642.722-1.284 1.055-1.927.485 1.108.896 2.18 1.221 3.198-1.054.24-2.192.434-3.392.578.378-.597.751-1.214 1.116-1.849zm1.04-5.521a55.589 55.589 0 0 0-1.046-1.892 49.263 49.263 0 0 0-1.105-1.818 34.37 34.37 0 0 1 3.314.579 33.158 33.158 0 0 1-1.163 3.131zm-7.44-8.119a33.55 33.55 0 0 1 2.139 2.582 46.549 46.549 0 0 0-4.297-.001 34.619 34.619 0 0 1 2.158-2.581zm-8.372-4.429c1.216-.705 3.905.299 6.739 2.815.181.161.363.33.545.503a36.968 36.968 0 0 0-3.096 3.833 37.851 37.851 0 0 0-4.851.754 21.812 21.812 0 0 1-.25-1.121c-.683-3.491-.229-6.124.913-6.784zm-1.773 19.029c-.31-.089-.609-.182-.897-.28-1.772-.606-3.236-1.394-4.24-2.252-.901-.772-1.356-1.539-1.356-2.161 0-1.323 1.973-3.012 5.264-4.16.399-.138.817-.27 1.251-.393a37.342 37.342 0 0 0 1.772 4.591 37.598 37.598 0 0 0-1.794 4.655zm8.415 7.078c-1.411 1.233-2.824 2.107-4.07 2.548-1.119.395-2.011.406-2.55.096-1.146-.661-1.623-3.214-.972-6.639.074-.392.163-.794.265-1.207 1.489.33 3.138.566 4.899.709a37.548 37.548 0 0 0 3.12 3.855c-.232.225-.463.437-.692.638zm1.773-1.754a35.232 35.232 0 0 1-2.187-2.618c.696.027 1.406.042 2.126.042.741 0 1.474-.017 2.195-.05a33.076 33.076 0 0 1-2.134 2.626zm9.429 2.16c-.216 1.166-.651 1.944-1.189 2.256-1.146.663-3.596-.199-6.237-2.473a22.68 22.68 0 0 1-.914-.832c1.023-1.12 2.047-2.423 3.047-3.869a36.435 36.435 0 0 0 4.923-.759c.073.299.14.592.196.879.363 1.838.416 3.5.174 4.798zm1.319-7.755c-.199.065-.403.129-.61.19-.46-1.456-1.081-3.004-1.841-4.604a36.78 36.78 0 0 0 1.77-4.537c.371.107.732.22 1.08.34 3.363 1.159 5.415 2.871 5.415 4.189-.001 1.405-2.217 3.229-5.814 4.422z"/><path fill="#F3F3F3" d="M24.744 21.808a3.246 3.246 0 1 1 0 6.491 3.246 3.246 0 0 1 0-6.491"/></svg>