<svg xmlns="http://www.w3.org/2000/svg" width="50" height="50" viewBox="0 0 50 50">
  <path fill="#F3F3F3" d="M45.718 32.592c-.144-1.22-.774-2.166-1.72-2.906-1.098-.86-2.383-1.214-3.756-1.27-1.115-.047-2.207.12-3.262.504-.3.106-.596.237-.896.357-.04-.072-.084-.14-.118-.217-.312-.635-.687-1.24-.77-1.967-.058-.518-.133-1.032-.007-1.545.12-.49.272-.973.415-1.458.075-.25.022-.39-.213-.502-.084-.04-.176-.074-.266-.087-.587-.084-1.164-.036-1.732.13-.2.058-.348.17-.393.393-.026.127-.077.25-.11.375-.148.522-.253 1.058-.492 1.553-.603 1.25-1.287 2.457-1.988 3.65-.078.13-.156.254-.254.412-.245-.515-.507-.978-.588-1.52-.086-.616-.16-1.227-.006-1.835.113-.454.26-.9.398-1.347.066-.214.034-.324-.158-.436-.096-.057-.205-.107-.314-.123-.61-.09-1.207-.043-1.793.148-.183.06-.277.176-.334.364-.158.553-.302 1.12-.528 1.646-.93 2.13-1.885 4.245-2.84 6.362-.2.443-.432.87-.656 1.3-.06.11-.14.205-.21.308-.06-.067-.08-.113-.08-.16 0-.27-.033-.55.02-.814.156-.795.336-1.588.528-2.377.158-.648.34-1.295.517-1.94.06-.22.062-.42-.095-.604-.262-.308-.807-.37-1.132-.138-.036.028-.078.042-.144.08.012-.098.018-.164.025-.228.07-.496.083-.986-.053-1.476-.17-.607-.603-.957-1.23-.94-.296.01-.604.06-.875.168-1.147.448-2.027 1.244-2.775 2.2-.067.086-.158.165-.254.217-.967.535-1.94 1.066-2.91 1.6-.362.2-.726.398-1.08.59-.29-.273-.554-.56-.854-.806-.91-.748-1.84-1.475-2.758-2.21-.814-.65-1.605-1.33-2.21-2.196-.448-.643-.736-1.345-.762-2.14-.04-1.014.247-1.94.763-2.8.66-1.104 1.56-1.987 2.548-2.79 1.045-.847 2.177-1.565 3.35-2.222 1.64-.92 3.33-1.732 5.14-2.27 1.854-.55 3.735-.864 5.676-.645.764.086 1.506.26 2.187.635.522.286.95.66 1.147 1.245.196.577.192 1.158.056 1.74-.277 1.185-.924 2.16-1.74 3.032-1.336 1.426-2.968 2.398-4.805 3.04-1.06.372-2.15.604-3.267.698-.915.078-1.81-.003-2.674-.32-.573-.21-1.07-.535-1.473-1-.07-.085-.163-.176-.296-.098-.13.077-.154.2-.11.33.075.21.14.427.255.615.287.47.705.81 1.166 1.104.884.56 1.874.75 2.898.794 1.556.066 3.075-.165 4.57-.583 2.137-.593 3.995-1.646 5.485-3.306 1.24-1.382 2.122-2.944 2.312-4.828.095-.92-.005-1.822-.437-2.66-.468-.91-1.21-1.538-2.096-2.002-1.294-.678-2.687-.944-4.125-1.02H22.09c-1.746.083-3.43.45-5.07 1.046-1.238.45-2.456.96-3.636 1.55-2.572 1.285-4.968 2.825-6.937 4.954C5.47 19.006 4.64 20.17 4.16 21.55c-.14.403-.224.832-.325 1.25-.007.035.032.067-.053.103v.59c.084.152.094.3.134.453.25.98.773 1.825 1.42 2.594.918 1.094 2.03 1.977 3.186 2.804 1 .72 2.015 1.423 3.02 2.14.172.122.333.264.52.413-.16.087-.297.165-.437.235-1.326.672-2.6 1.426-3.776 2.338-.71.553-1.394 1.14-1.88 1.898-.775 1.23-1.053 2.54-.473 3.938.17.41.43.764.794 1.02.12.087.25.17.388.202.354.084.715.14 1.074.205H8.77c1.125-.102 2.145-.485 3.066-1.123 1.447-.996 2.418-2.332 2.837-4.047.304-1.246.316-2.494-.04-3.733-.035-.115-.077-.228-.122-.34-.042-.11-.092-.22-.154-.36l2.303-1.322c.01.01.02.02.032.027-.04.14-.085.272-.124.414-.273.997-.455 2.015-.39 3.053.068 1.1.376 2.136 1.025 3.06.52.746 1.767.773 2.324.027.197-.268.388-.545.53-.844.376-.773.725-1.563 1.084-2.348l.063-.143c-.026.37-.056.696-.07 1.023-.02.51.008 1.016.183 1.502.147.414.4.72.875.775.325.037.585-.11.824-.3.375-.296.676-.657.9-1.072.638-1.17 1.292-2.33 1.868-3.528.625-1.297 1.17-2.63 1.75-3.946.033-.074.06-.147.098-.236.136.54.232 1.064.408 1.564.203.58.457 1.144.732 1.693.13.26.114.43-.066.646-.752.91-1.496 1.833-2.235 2.755-.17.203-.334.41-.47.633-.08.133-.14.3-.162.455-.04.304.142.592.466.66.295.064.606.088.904.065 1.035-.075 1.98-.438 2.812-1.058 1.077-.798 1.425-1.89 1.164-3.178-.072-.352-.197-.693-.318-1.032-.054-.15-.057-.26.043-.4.862-1.233 1.597-2.54 2.282-3.874.026-.052.053-.103.1-.16.223 1.154.557 2.27 1.156 3.276-.307.295-.61.562-.88.857-.604.647-1.127 1.352-1.398 2.21-.118.366-.206.745-.155 1.138.08.618.584 1.015 1.188.874 1.29-.3 2.402-.906 3.215-1.982.55-.724.6-1.533.37-2.38-.062-.23-.138-.458-.216-.723.316-.1.628-.216.95-.29 1.665-.38 3.313-.314 4.92.288.935.35 1.694.936 2.144 1.863.55 1.134.246 2.206-.82 2.92-.098.07-.21.122-.295.202-.05.053-.08.155-.065.225.005.04.115.094.176.094.353-.003.638-.187.91-.374.685-.475 1.136-1.11 1.242-1.947.003-.026-.03-.048.052-.07v-.558c-.083-.023-.047-.045-.05-.067h-.013l-.002-.003zm-32.61 2.266c-.112 1.49-.788 2.705-1.894 3.683-.623.554-1.335.944-2.167 1.083-.3.047-.61.062-.902-.064-.415-.18-.508-.548-.518-.942-.013-.63.208-1.198.51-1.74.393-.7.97-1.238 1.585-1.738.972-.79 2.025-1.46 3.103-2.093.017-.01.04-.016.08-.034.168.618.25 1.225.202 1.845zm8.422-6.49c-.08.476-.177.954-.316 1.417-.482 1.598-1.098 3.15-1.768 4.678-.123.28-.303.54-.458.81-.024.042-.06.08-.095.113-.193.192-.378.18-.476-.07-.113-.292-.183-.6-.242-.91-.04-.205-.032-.42-.044-.634.014-1.506.473-2.875 1.252-4.148.32-.525.672-1.023 1.205-1.357.165-.102.348-.185.535-.238.282-.082.458.053.41.34h-.002zm5.745 7.322l2.066-2.41c.086.894-1.436 2.68-2.065 2.41zm6.598-1.622c-.148.082-.31.145-.456.22-.138.073-.185 0-.187-.116 0-.082.008-.166.03-.242.278-.986.788-1.824 1.556-2.506.01-.016.027-.016.053-.027.366 1.014-.054 2.13-.997 2.67z"/>
</svg>
