<svg viewBox="0 0 31.567 41.524"><path d="M23.258 10.485c-.09-.247-.336-.41-.598-.471a1.887 1.887 0 0 0-.576-.03 1.696 1.696 0 0 1-.365.127c.068.304.203.59.395.837.08.113.186.208.307.276a.605.605 0 0 0 .836-.739h.001zm-4.884 5.504c-4.571 0-9.576-2.935-9.858-3.106a.74.74 0 1 1 .754-1.277 26.45 26.45 0 0 0 4.966 2.172c2.398.747 5.699 1.292 7.769-.396a.74.74 0 0 1 .934 1.149c-1.294 1.071-2.899 1.459-4.565 1.458zM11.211 8.91s1.568-.174 1.568.5c0 .672-1.121.687-1.121.687s-1.269-.35-.447-1.187zm5.301 2.382s.537-.985 1.053-.537c.518.447.314.971.314.971s-.994.179-1.365-.434h-.002z"/><path d="M30.637 16.923a4.59 4.59 0 0 0-.613-.194l-.656 2.838-.598-.649S27.118 2.988 20.249.001c-2.777.463-6.35.747-7.768 2.688 0 0-9.44 4.025-8.559 16.041-1.193.195-2.367.5-3.504.912a.632.632 0 0 0-.379.813c.117.33.482.5.812.381a18.066 18.066 0 0 1 3.196-.837c.262 2.023.806 4.265 1.726 6.736 3.346 4.608 6.743 6.333 9.812 6.564.055.493.146.983.269 1.464.12.493.232.963.255 1.435.013.41-.002.823-.045 1.231-.066.792-.135 1.614.149 2.436a.633.633 0 0 0 .806.395.634.634 0 0 0 .396-.806c-.195-.567-.143-1.227-.084-1.92.049-.468.064-.94.045-1.411-.035-.573-.164-1.12-.283-1.642a10.996 10.996 0 0 1-.232-1.167 8.11 8.11 0 0 0 .822-.083c.037.637.156 1.242.275 1.831.121.591.232 1.166.262 1.74.016.498 0 .997-.045 1.494-.061.918-.127 1.866.143 2.808a.634.634 0 0 0 1.214-.352c-.207-.716-.146-1.523-.088-2.366.047-.546.062-1.095.045-1.643-.037-.665-.156-1.309-.283-1.92-.127-.613-.248-1.233-.262-1.837 4.66-1.217 7.945-5.205 7.945-5.205s3.525-4.087 4.676-9.037c-.305-.61-.619-1.216-.934-1.821h.006zM10.391 29.425c-3.16-3.249-4.422-6.573-4.594-9.679a2.38 2.38 0 0 0 .747-.299c.411-.261.663-.627.889-.956.112-.176.239-.34.38-.492.337-.32.816-.438 1.264-.314a.634.634 0 1 0 .358-1.217 2.587 2.587 0 0 0-2.517.627c-.2.209-.38.437-.538.68-.18.261-.336.485-.523.605l-.074.044c.285-7.295 6.102-13.047 6.102-13.047s2.54-4.032 8.067-4.032c3.656.448 6.121 10.455 6.121 10.455s1.717 4.406 1.643 6.423c-.072 2.018.674 2.465.674 2.465h.971c-.001-.001-7.769 17.773-18.97 8.737z"/></svg>
