<?xml version="1.0" encoding="utf-8"?>
<!-- Generator: Adobe Illustrator 16.0.0, SVG Export Plug-In . SVG Version: 6.00 Build 0)  -->
<!DOCTYPE svg PUBLIC "-//W3C//DTD SVG 1.1//EN" "http://www.w3.org/Graphics/SVG/1.1/DTD/svg11.dtd">
<svg version="1.1" id="Layer_1" xmlns="http://www.w3.org/2000/svg" xmlns:xlink="http://www.w3.org/1999/xlink" x="0px" y="0px"
	 width="39.684px" height="52.198px" viewBox="209.642 49.806 39.684 52.198" enable-background="new 209.642 49.806 39.684 52.198"
	 xml:space="preserve">
<path fill="#F3F3F3" d="M238.878,62.987c-0.112-0.311-0.422-0.517-0.751-0.592c-0.237-0.049-0.48-0.062-0.723-0.038
	c-0.146,0.069-0.301,0.123-0.459,0.159c0.087,0.383,0.256,0.742,0.496,1.053c0.102,0.142,0.233,0.261,0.386,0.348
	c0.377,0.183,0.832,0.024,1.015-0.354C238.93,63.384,238.943,63.176,238.878,62.987L238.878,62.987z M232.739,69.905
	c-5.745,0-12.036-3.688-12.392-3.904c-0.444-0.262-0.591-0.834-0.329-1.277c0.261-0.443,0.834-0.591,1.277-0.328
	c1.982,1.121,4.073,2.036,6.242,2.73c3.014,0.939,7.163,1.624,9.765-0.497c0.399-0.322,0.986-0.263,1.311,0.136
	c0.323,0.4,0.263,0.986-0.137,1.31C236.851,69.417,234.832,69.905,232.739,69.905L232.739,69.905z M223.736,61.006
	c0,0,1.972-0.217,1.972,0.629c0,0.845-1.409,0.863-1.409,0.863S222.702,62.059,223.736,61.006L223.736,61.006z M230.401,64.001
	c0,0,0.676-1.239,1.323-0.676c0.649,0.562,0.396,1.22,0.396,1.22S230.869,64.771,230.401,64.001L230.401,64.001z"/>
<path fill="#F3F3F3" d="M248.154,71.079c-0.251-0.099-0.508-0.18-0.77-0.244l-0.826,3.567l-0.75-0.817
	c0,0-2.076-20.023-10.713-23.779c-3.491,0.582-7.98,0.939-9.764,3.38c0,0-11.867,5.061-10.759,20.165
	c-1.5,0.244-2.976,0.628-4.403,1.146c-0.415,0.149-0.63,0.608-0.479,1.022c0.149,0.415,0.608,0.628,1.022,0.479
	c1.305-0.472,2.649-0.824,4.019-1.052c0.328,2.544,1.013,5.361,2.169,8.468c4.205,5.793,8.477,7.96,12.335,8.253
	c0.069,0.62,0.183,1.234,0.338,1.839c0.15,0.62,0.292,1.212,0.319,1.804c0.017,0.517-0.002,1.034-0.057,1.549
	c-0.084,0.995-0.169,2.028,0.188,3.061c0.142,0.417,0.597,0.64,1.013,0.497c0.418-0.144,0.641-0.597,0.498-1.014
	c-0.244-0.714-0.179-1.541-0.104-2.413c0.062-0.59,0.08-1.183,0.056-1.775c-0.046-0.721-0.206-1.407-0.356-2.063
	c-0.124-0.483-0.222-0.972-0.291-1.466c0.351-0.019,0.694-0.053,1.033-0.104c0.047,0.799,0.196,1.56,0.347,2.301
	c0.151,0.742,0.291,1.465,0.328,2.188c0.02,0.626,0,1.253-0.056,1.877c-0.075,1.155-0.159,2.348,0.179,3.53
	c0.149,0.414,0.606,0.63,1.021,0.479c0.376-0.136,0.594-0.53,0.508-0.922c-0.263-0.901-0.187-1.915-0.112-2.975
	c0.06-0.688,0.079-1.377,0.057-2.065c-0.048-0.836-0.197-1.645-0.357-2.413c-0.159-0.771-0.31-1.55-0.328-2.31
	c5.857-1.53,9.988-6.543,9.988-6.543s4.432-5.137,5.878-11.36C248.941,72.601,248.547,71.84,248.154,71.079L248.154,71.079z
	 M222.703,86.795c-3.972-4.084-5.558-8.262-5.773-12.167c0.332-0.071,0.648-0.198,0.938-0.375c0.517-0.329,0.835-0.789,1.117-1.202
	c0.141-0.221,0.301-0.428,0.479-0.619c0.423-0.401,1.025-0.551,1.587-0.396c0.418,0.138,0.87-0.091,1.006-0.509
	c0.138-0.419-0.09-0.871-0.509-1.008c-0.017-0.006-0.031-0.01-0.047-0.013c-1.12-0.322-2.326-0.021-3.164,0.788
	c-0.252,0.263-0.479,0.549-0.676,0.854c-0.227,0.328-0.423,0.61-0.658,0.761l-0.094,0.056c0.357-9.171,7.67-16.401,7.67-16.401
	s3.193-5.068,10.14-5.068c4.599,0.563,7.698,13.143,7.698,13.143s2.158,5.538,2.064,8.073c-0.093,2.536,0.847,3.099,0.847,3.099
	h1.22C246.548,75.81,236.784,98.153,222.703,86.795L222.703,86.795z"/>
</svg>
