<svg xmlns="http://www.w3.org/2000/svg" width="50" height="50" viewBox="0 0 50 50">
  <path fill="#F3F3F3" d="M38.78 10.22l-6.993-3.08H17.285l-6.952 3.136L4.55 16.7l20 26.595 20-26.594-5.77-6.48zm4.103 6.653l-6.324 4.734-4.5-6.74 6.365-2.994 4.458 5zm-8.647 5.454H14.493l3.93-6.98 11.77.03 4.043 6.95zM18.58 8.183h12.047L36.56 10.8 30.6 13.392H18.555l-5.896-2.59 5.92-2.62zm-7.918 3.69l5.97 2.99-4.274 6.61-6.154-4.6 4.458-5zm-2.166 8.484l3.89 3.278 9.25 15.224-13.14-18.503zm6.536 4.135H33.78L24.55 41.5l-9.518-17.008zm12.42 14.367l9.25-15.225 3.89-3.278-13.14 18.502z"/>
</svg>
