<svg xmlns="http://www.w3.org/2000/svg" width="425" height="412.008" viewBox="0 0 425 412.008"><path fill="none" d="M-6 28h425v336H-6V28z"/><path fill="none" stroke="#444445" stroke-miterlimit="10" d="M213.452 193L419 333.504M213.452 193L6.622 330.42"/><ellipse fill="#D1BB1C" stroke="#D1BB1C" stroke-width="3" stroke-miterlimit="10" cx="315.877" cy="264.301" rx="8.882" ry="8.837"/><ellipse fill="#ff0353" stroke="#ff0353" stroke-width="3" stroke-miterlimit="10" cx="86.75" cy="276.411" rx="8.881" ry="8.837"/><ellipse fill="#4404da" stroke="#4404da" stroke-width="3" stroke-miterlimit="10" cx="343.006" cy="281.896" rx="8.881" ry="8.836"/><ellipse fill="#ff0353" stroke="#ff0353" stroke-width="3" stroke-miterlimit="10" cx="126.771" cy="249.132" rx="8.882" ry="8.837"/><path fill="none" stroke="#444445" stroke-miterlimit="10" d="M213.427 192.661L6.218 52.715m207.209 139.946L419.218 53.689"/><ellipse transform="matrix(.0075 1 -1 .0075 278.158 5.554)" fill="#D1BB1C" stroke="#D1BB1C" stroke-width="3" stroke-miterlimit="10" cx="136.281" cy="142.905" rx="8.837" ry="8.882"/><ellipse transform="rotate(89.57 255.043 163.446)" fill="#4404da" stroke="#4404da" stroke-width="3" stroke-miterlimit="10" cx="255.051" cy="163.454" rx="8.836" ry="8.881"/><ellipse transform="rotate(89.57 312.448 126.645)" fill="#ff0353" stroke="#ff0353" stroke-width="3" stroke-miterlimit="10" cx="312.458" cy="126.652" rx="8.837" ry="8.881"/></svg>
