<?xml version="1.0" encoding="utf-8"?>
<!-- Generator: Adobe Illustrator 16.0.0, SVG Export Plug-In . SVG Version: 6.00 Build 0)  -->
<!DOCTYPE svg PUBLIC "-//W3C//DTD SVG 1.1//EN" "http://www.w3.org/Graphics/SVG/1.1/DTD/svg11.dtd">
<svg version="1.1" id="Layer_1" xmlns="http://www.w3.org/2000/svg" xmlns:xlink="http://www.w3.org/1999/xlink" x="0px" y="0px"
	 width="800px" height="1440px" viewBox="0 0 800 1440" enable-background="new 0 0 800 1440" xml:space="preserve">
<g id="_x32_LhnFW.tif">
	
		<image overflow="visible" width="2186" height="1208" id="Layer_0_1_" xlink:href="19D1CC57E7086435.png"  transform="matrix(0.3657 0 0 0.3684 0.688 0)">
	</image>
</g>
<circle fill="none" stroke="#FFFFFF" stroke-miterlimit="10" cx="794.5" cy="0" r="75"/>
<circle fill="none" stroke="#FFFFFF" stroke-miterlimit="10" cx="771" cy="13" r="125"/>
<circle fill="none" stroke="#FFFFFF" stroke-miterlimit="10" cx="740" cy="40" r="200"/>
<circle fill="none" stroke="#FFFFFF" stroke-miterlimit="10" cx="685" cy="38" r="300"/>
<path fill="none" stroke="#FFFFFF" stroke-miterlimit="10" d="M1021,57c0,220.914-179.083,400-400,400
	c-220.912,0-400-179.086-400-400s179.088-400,400-400C841.917-343,1021-163.914,1021,57z"/>
<path fill="none" stroke="#FFFFFF" stroke-miterlimit="10" d="M1050,79c0,276.143-223.854,500-500,500C273.86,579,50,355.143,50,79
	s223.86-500,500-500C826.146-421,1050-197.143,1050,79z"/>
<rect x="-0.5" y="0.5" fill="none" stroke="#FFFFFF" stroke-miterlimit="10" width="800" height="444"/>
<line fill="none" stroke="#FFFFFF" stroke-miterlimit="10" x1="800" y1="0" x2="-31" y2="241"/>
<line fill="none" stroke="#FFFFFF" stroke-miterlimit="10" x1="800" y1="0" x2="531" y2="467"/>
<line fill="none" stroke="#FFFFFF" stroke-miterlimit="10" x1="800" y1="0" x2="85" y2="493"/>
</svg>
